<?xml version="1.0" encoding="UTF-8" standalone="no"?>
<!DOCTYPE svg PUBLIC "-//W3C//DTD SVG 1.1//EN"
 "http://www.w3.org/Graphics/SVG/1.1/DTD/svg11.dtd">
<!-- Generated by graphviz version 14.1.1 (20251213.1925)
 -->
<!-- Title: classes_novel_testbed Pages: 1 -->
<svg width="3155pt" height="457pt"
 viewBox="0.00 0.00 3155.00 457.00" xmlns="http://www.w3.org/2000/svg" xmlns:xlink="http://www.w3.org/1999/xlink">
<g id="graph0" class="graph" transform="scale(1 1) rotate(0) translate(4 453)">
<title>classes_novel_testbed</title>
<polygon fill="white" stroke="none" points="-4,4 -4,-453 3151.25,-453 3151.25,4 -4,4"/>
<!-- novel_testbed.parser.commonmark.CommonMarkNovelParser -->
<g id="node1" class="node">
<title>novel_testbed.parser.commonmark.CommonMarkNovelParser</title>
<polygon fill="none" stroke="black" points="0,-87 0,-136 164.5,-136 164.5,-87 0,-87"/>
<text xml:space="preserve" text-anchor="start" x="8" y="-118.7" font-family="Times,serif" font-size="14.00">CommonMarkNovelParser</text>
<polyline fill="none" stroke="black" points="0,-111.5 164.5,-111.5"/>
<polyline fill="none" stroke="black" points="0,-111.5 164.5,-111.5"/>
<text xml:space="preserve" text-anchor="start" x="22.62" y="-94.2" font-family="Times,serif" font-size="14.00">parse(text: str): Novel</text>
</g>
<!-- novel_testbed.parser.base.NovelParser -->
<g id="node14" class="node">
<title>novel_testbed.parser.base.NovelParser</title>
<polygon fill="none" stroke="black" points="13.88,-337.75 13.88,-386.75 150.62,-386.75 150.62,-337.75 13.88,-337.75"/>
<text xml:space="preserve" text-anchor="start" x="48.88" y="-369.45" font-family="Times,serif" font-size="14.00">NovelParser</text>
<polyline fill="none" stroke="black" points="13.88,-362.25 150.62,-362.25"/>
<polyline fill="none" stroke="black" points="13.88,-362.25 150.62,-362.25"/>
<text xml:space="preserve" text-anchor="start" x="21.88" y="-345.95" font-family="Times,serif" font-style="italic" font-size="14.00">parse</text>
<text xml:space="preserve" text-anchor="start" x="51.88" y="-345.95" font-family="Times,serif" font-size="14.00">(text: str): Novel</text>
</g>
<!-- novel_testbed.parser.commonmark.CommonMarkNovelParser&#45;&gt;novel_testbed.parser.base.NovelParser -->
<g id="edge2" class="edge">
<title>novel_testbed.parser.commonmark.CommonMarkNovelParser&#45;&gt;novel_testbed.parser.base.NovelParser</title>
<path fill="none" stroke="black" d="M82.25,-136.35C82.25,-180.37 82.25,-274.56 82.25,-325.98"/>
<polygon fill="none" stroke="black" points="78.75,-325.96 82.25,-335.96 85.75,-325.96 78.75,-325.96"/>
</g>
<!-- novel_testbed.inference.base.ContractInferencer -->
<g id="node2" class="node">
<title>novel_testbed.inference.base.ContractInferencer</title>
<polygon fill="none" stroke="black" points="182.88,-337.75 182.88,-386.75 517.62,-386.75 517.62,-337.75 182.88,-337.75"/>
<text xml:space="preserve" text-anchor="start" x="299.25" y="-369.45" font-family="Times,serif" font-size="14.00">ContractInferencer</text>
<polyline fill="none" stroke="black" points="182.88,-362.25 517.62,-362.25"/>
<polyline fill="none" stroke="black" points="182.88,-362.25 517.62,-362.25"/>
<text xml:space="preserve" text-anchor="start" x="190.88" y="-345.95" font-family="Times,serif" font-style="italic" font-size="14.00">infer</text>
<text xml:space="preserve" text-anchor="start" x="216.38" y="-345.95" font-family="Times,serif" font-size="14.00">(modules: Sequence[Module]): List[ModuleContract]</text>
</g>
<!-- novel_testbed.contracts.rules.Finding -->
<g id="node3" class="node">
<title>novel_testbed.contracts.rules.Finding</title>
<polygon fill="none" stroke="black" points="535.62,-58.25 535.62,-164.75 622.88,-164.75 622.88,-58.25 535.62,-58.25"/>
<text xml:space="preserve" text-anchor="start" x="558.25" y="-147.45" font-family="Times,serif" font-size="14.00">Finding</text>
<polyline fill="none" stroke="black" points="535.62,-140.25 622.88,-140.25"/>
<text xml:space="preserve" text-anchor="start" x="543.62" y="-122.95" font-family="Times,serif" font-size="14.00">message : str</text>
<text xml:space="preserve" text-anchor="start" x="543.62" y="-106.45" font-family="Times,serif" font-size="14.00">rule : str</text>
<text xml:space="preserve" text-anchor="start" x="543.62" y="-89.95" font-family="Times,serif" font-size="14.00">severity : str</text>
<polyline fill="none" stroke="black" points="535.62,-82.75 622.88,-82.75"/>
<text xml:space="preserve" text-anchor="start" x="577.38" y="-65.45" font-family="Times,serif" font-size="14.00"> </text>
</g>
<!-- novel_testbed.inference.types.InferredModuleContract -->
<g id="node4" class="node">
<title>novel_testbed.inference.types.InferredModuleContract</title>
<polygon fill="none" stroke="black" points="641,-50 641,-173 811.5,-173 811.5,-50 641,-50"/>
<text xml:space="preserve" text-anchor="start" x="659.88" y="-155.7" font-family="Times,serif" font-size="14.00">InferredModuleContract</text>
<polyline fill="none" stroke="black" points="641,-148.5 811.5,-148.5"/>
<text xml:space="preserve" text-anchor="start" x="649" y="-131.2" font-family="Times,serif" font-size="14.00">confidence : float</text>
<text xml:space="preserve" text-anchor="start" x="649" y="-114.7" font-family="Times,serif" font-size="14.00">expected_changes : List[str]</text>
<text xml:space="preserve" text-anchor="start" x="649" y="-98.2" font-family="Times,serif" font-size="14.00">notes : Dict[str, Any] | None</text>
<text xml:space="preserve" text-anchor="start" x="649" y="-81.7" font-family="Times,serif" font-size="14.00">post_state</text>
<polyline fill="none" stroke="black" points="641,-74.5 811.5,-74.5"/>
<text xml:space="preserve" text-anchor="start" x="724.38" y="-57.2" font-family="Times,serif" font-size="14.00"> </text>
</g>
<!-- novel_testbed.inference.types.InferredState -->
<g id="node5" class="node">
<title>novel_testbed.inference.types.InferredState</title>
<polygon fill="none" stroke="black" points="620.38,-284.25 620.38,-440.25 832.12,-440.25 832.12,-284.25 620.38,-284.25"/>
<text xml:space="preserve" text-anchor="start" x="691" y="-422.95" font-family="Times,serif" font-size="14.00">InferredState</text>
<polyline fill="none" stroke="black" points="620.38,-415.75 832.12,-415.75"/>
<text xml:space="preserve" text-anchor="start" x="628.38" y="-398.45" font-family="Times,serif" font-size="14.00">agency_level : Optional[float]</text>
<text xml:space="preserve" text-anchor="start" x="628.38" y="-381.95" font-family="Times,serif" font-size="14.00">dominant_fantasy_id : Optional[str]</text>
<text xml:space="preserve" text-anchor="start" x="628.38" y="-365.45" font-family="Times,serif" font-size="14.00">emotional_tone : Optional[str]</text>
<text xml:space="preserve" text-anchor="start" x="628.38" y="-348.95" font-family="Times,serif" font-size="14.00">genre : Optional[str]</text>
<text xml:space="preserve" text-anchor="start" x="628.38" y="-332.45" font-family="Times,serif" font-size="14.00">power_balance : Optional[str]</text>
<text xml:space="preserve" text-anchor="start" x="628.38" y="-315.95" font-family="Times,serif" font-size="14.00">threat_level : Optional[float]</text>
<polyline fill="none" stroke="black" points="620.38,-308.75 832.12,-308.75"/>
<text xml:space="preserve" text-anchor="start" x="724.38" y="-291.45" font-family="Times,serif" font-size="14.00"> </text>
</g>
<!-- novel_testbed.inference.types.InferredModuleContract&#45;&gt;novel_testbed.inference.types.InferredState -->
<g id="edge3" class="edge">
<title>novel_testbed.inference.types.InferredModuleContract&#45;&gt;novel_testbed.inference.types.InferredState</title>
<path fill="none" stroke="black" d="M726.25,-173.35C726.25,-203.33 726.25,-240.04 726.25,-273.04"/>
<polygon fill="black" stroke="black" points="726.25,-282.85 721.75,-272.85 726.25,-279.07 726.25,-272.85 726.25,-272.85 726.25,-272.85 726.25,-279.07 730.75,-272.85 726.25,-282.85"/>
<text xml:space="preserve" text-anchor="middle" x="753.25" y="-244.2" font-family="Times,serif" font-size="14.00" fill="green">post_state</text>
</g>
<!-- novel_testbed.inference.llm_client.LLMClientConfig -->
<g id="node6" class="node">
<title>novel_testbed.inference.llm_client.LLMClientConfig</title>
<polygon fill="none" stroke="black" points="829.38,-66.5 829.38,-156.5 945.12,-156.5 945.12,-66.5 829.38,-66.5"/>
<text xml:space="preserve" text-anchor="start" x="837.38" y="-139.2" font-family="Times,serif" font-size="14.00">LLMClientConfig</text>
<polyline fill="none" stroke="black" points="829.38,-132 945.12,-132"/>
<text xml:space="preserve" text-anchor="start" x="847.5" y="-114.7" font-family="Times,serif" font-size="14.00">model : str</text>
<text xml:space="preserve" text-anchor="start" x="847.5" y="-98.2" font-family="Times,serif" font-size="14.00">timeout_s : int</text>
<polyline fill="none" stroke="black" points="829.38,-91 945.12,-91"/>
<text xml:space="preserve" text-anchor="start" x="885.38" y="-73.7" font-family="Times,serif" font-size="14.00"> </text>
</g>
<!-- novel_testbed.contracts.rules.MissingExpectedChangeRule -->
<g id="node7" class="node">
<title>novel_testbed.contracts.rules.MissingExpectedChangeRule</title>
<polygon fill="none" stroke="black" points="963.25,-74.75 963.25,-148.25 1279.25,-148.25 1279.25,-74.75 963.25,-74.75"/>
<text xml:space="preserve" text-anchor="start" x="1040.62" y="-130.95" font-family="Times,serif" font-size="14.00">MissingExpectedChangeRule</text>
<polyline fill="none" stroke="black" points="963.25,-123.75 1279.25,-123.75"/>
<text xml:space="preserve" text-anchor="start" x="1093.88" y="-106.45" font-family="Times,serif" font-size="14.00">name : str</text>
<polyline fill="none" stroke="black" points="963.25,-99.25 1279.25,-99.25"/>
<text xml:space="preserve" text-anchor="start" x="971.25" y="-81.95" font-family="Times,serif" font-size="14.00">evaluate(contract: ModuleContract): Optional[Finding]</text>
</g>
<!-- novel_testbed.models.Module -->
<g id="node8" class="node">
<title>novel_testbed.models.Module</title>
<polygon fill="none" stroke="black" points="1297.38,-0.5 1297.38,-222.5 1449.12,-222.5 1449.12,-0.5 1297.38,-0.5"/>
<text xml:space="preserve" text-anchor="start" x="1351.88" y="-205.2" font-family="Times,serif" font-size="14.00">Module</text>
<polyline fill="none" stroke="black" points="1297.38,-198 1449.12,-198"/>
<text xml:space="preserve" text-anchor="start" x="1305.38" y="-180.7" font-family="Times,serif" font-size="14.00">chapter : str</text>
<text xml:space="preserve" text-anchor="start" x="1305.38" y="-164.2" font-family="Times,serif" font-size="14.00">end_line : int</text>
<text xml:space="preserve" text-anchor="start" x="1305.38" y="-147.7" font-family="Times,serif" font-size="14.00">end_text : str</text>
<text xml:space="preserve" text-anchor="start" x="1305.38" y="-131.2" font-family="Times,serif" font-size="14.00">id : str</text>
<text xml:space="preserve" text-anchor="start" x="1305.38" y="-114.7" font-family="Times,serif" font-size="14.00">metadata : Dict[str, Any]</text>
<text xml:space="preserve" text-anchor="start" x="1305.38" y="-98.2" font-family="Times,serif" font-size="14.00">module_type</text>
<text xml:space="preserve" text-anchor="start" x="1305.38" y="-81.7" font-family="Times,serif" font-size="14.00">start_line : int</text>
<text xml:space="preserve" text-anchor="start" x="1305.38" y="-65.2" font-family="Times,serif" font-size="14.00">start_text : str</text>
<text xml:space="preserve" text-anchor="start" x="1305.38" y="-48.7" font-family="Times,serif" font-size="14.00">text : str</text>
<text xml:space="preserve" text-anchor="start" x="1305.38" y="-32.2" font-family="Times,serif" font-size="14.00">title : str</text>
<polyline fill="none" stroke="black" points="1297.38,-25 1449.12,-25"/>
<text xml:space="preserve" text-anchor="start" x="1371.38" y="-7.7" font-family="Times,serif" font-size="14.00"> </text>
</g>
<!-- novel_testbed.models.ModuleType -->
<g id="node11" class="node">
<title>novel_testbed.models.ModuleType</title>
<polygon fill="none" stroke="black" points="1330,-325.5 1330,-399 1416.5,-399 1416.5,-325.5 1330,-325.5"/>
<text xml:space="preserve" text-anchor="start" x="1338" y="-381.7" font-family="Times,serif" font-size="14.00">ModuleType</text>
<polyline fill="none" stroke="black" points="1330,-374.5 1416.5,-374.5"/>
<text xml:space="preserve" text-anchor="start" x="1358.25" y="-357.2" font-family="Times,serif" font-size="14.00">name</text>
<polyline fill="none" stroke="black" points="1330,-350 1416.5,-350"/>
<text xml:space="preserve" text-anchor="start" x="1371.38" y="-332.7" font-family="Times,serif" font-size="14.00"> </text>
</g>
<!-- novel_testbed.models.Module&#45;&gt;novel_testbed.models.ModuleType -->
<g id="edge4" class="edge">
<title>novel_testbed.models.Module&#45;&gt;novel_testbed.models.ModuleType</title>
<path fill="none" stroke="black" d="M1373.25,-222.69C1373.25,-254.84 1373.25,-288.27 1373.25,-314.24"/>
<polygon fill="black" stroke="black" points="1373.25,-324.03 1368.75,-314.03 1373.25,-320.25 1373.25,-314.03 1373.25,-314.03 1373.25,-314.03 1373.25,-320.25 1377.75,-314.03 1373.25,-324.03"/>
<text xml:space="preserve" text-anchor="middle" x="1408.88" y="-244.2" font-family="Times,serif" font-size="14.00" fill="green">module_type</text>
</g>
<!-- novel_testbed.models.ModuleContract -->
<g id="node9" class="node">
<title>novel_testbed.models.ModuleContract</title>
<polygon fill="none" stroke="black" points="1466.75,-0.5 1466.75,-222.5 1635.75,-222.5 1635.75,-0.5 1466.75,-0.5"/>
<text xml:space="preserve" text-anchor="start" x="1506.62" y="-205.2" font-family="Times,serif" font-size="14.00">ModuleContract</text>
<polyline fill="none" stroke="black" points="1466.75,-198 1635.75,-198"/>
<text xml:space="preserve" text-anchor="start" x="1474.75" y="-180.7" font-family="Times,serif" font-size="14.00">anchors : Dict[str, str]</text>
<text xml:space="preserve" text-anchor="start" x="1474.75" y="-164.2" font-family="Times,serif" font-size="14.00">chapter : str</text>
<text xml:space="preserve" text-anchor="start" x="1474.75" y="-147.7" font-family="Times,serif" font-size="14.00">expected_changes : List[str]</text>
<text xml:space="preserve" text-anchor="start" x="1474.75" y="-131.2" font-family="Times,serif" font-size="14.00">fantasy_id : Optional[str]</text>
<text xml:space="preserve" text-anchor="start" x="1474.75" y="-114.7" font-family="Times,serif" font-size="14.00">module_id : str</text>
<text xml:space="preserve" text-anchor="start" x="1474.75" y="-98.2" font-family="Times,serif" font-size="14.00">module_title : str</text>
<text xml:space="preserve" text-anchor="start" x="1474.75" y="-81.7" font-family="Times,serif" font-size="14.00">module_type : Optional[str]</text>
<text xml:space="preserve" text-anchor="start" x="1474.75" y="-65.2" font-family="Times,serif" font-size="14.00">page_range : Optional[str]</text>
<text xml:space="preserve" text-anchor="start" x="1474.75" y="-48.7" font-family="Times,serif" font-size="14.00">post_state</text>
<text xml:space="preserve" text-anchor="start" x="1474.75" y="-32.2" font-family="Times,serif" font-size="14.00">pre_state</text>
<polyline fill="none" stroke="black" points="1466.75,-25 1635.75,-25"/>
<text xml:space="preserve" text-anchor="start" x="1549.38" y="-7.7" font-family="Times,serif" font-size="14.00"> </text>
</g>
<!-- novel_testbed.models.ReaderState -->
<g id="node17" class="node">
<title>novel_testbed.models.ReaderState</title>
<polygon fill="none" stroke="black" points="1476.38,-276 1476.38,-448.5 1688.12,-448.5 1688.12,-276 1476.38,-276"/>
<text xml:space="preserve" text-anchor="start" x="1549.62" y="-431.2" font-family="Times,serif" font-size="14.00">ReaderState</text>
<polyline fill="none" stroke="black" points="1476.38,-424 1688.12,-424"/>
<text xml:space="preserve" text-anchor="start" x="1484.38" y="-406.7" font-family="Times,serif" font-size="14.00">agency_level : Optional[float]</text>
<text xml:space="preserve" text-anchor="start" x="1484.38" y="-390.2" font-family="Times,serif" font-size="14.00">dominant_fantasy_id : Optional[str]</text>
<text xml:space="preserve" text-anchor="start" x="1484.38" y="-373.7" font-family="Times,serif" font-size="14.00">emotional_tone : Optional[str]</text>
<text xml:space="preserve" text-anchor="start" x="1484.38" y="-357.2" font-family="Times,serif" font-size="14.00">genre : Optional[str]</text>
<text xml:space="preserve" text-anchor="start" x="1484.38" y="-340.7" font-family="Times,serif" font-size="14.00">notes : Dict[str, Any]</text>
<text xml:space="preserve" text-anchor="start" x="1484.38" y="-324.2" font-family="Times,serif" font-size="14.00">power_balance : Optional[str]</text>
<text xml:space="preserve" text-anchor="start" x="1484.38" y="-307.7" font-family="Times,serif" font-size="14.00">threat_level : Optional[float]</text>
<polyline fill="none" stroke="black" points="1476.38,-300.5 1688.12,-300.5"/>
<text xml:space="preserve" text-anchor="start" x="1580.38" y="-283.2" font-family="Times,serif" font-size="14.00"> </text>
</g>
<!-- novel_testbed.models.ModuleContract&#45;&gt;novel_testbed.models.ReaderState -->
<g id="edge5" class="edge">
<title>novel_testbed.models.ModuleContract&#45;&gt;novel_testbed.models.ReaderState</title>
<path fill="none" stroke="black" d="M1512.73,-222.83C1512.22,-234.58 1513.25,-246.31 1516.5,-257.5 1517.24,-260.05 1518.06,-262.59 1518.96,-265.13"/>
<polygon fill="black" stroke="black" points="1522.59,-274.37 1514.74,-266.71 1521.21,-270.85 1518.93,-265.06 1518.93,-265.06 1518.93,-265.06 1521.21,-270.85 1523.12,-263.42 1522.59,-274.37"/>
<text xml:space="preserve" text-anchor="middle" x="1540.88" y="-244.2" font-family="Times,serif" font-size="14.00" fill="green">pre_state</text>
</g>
<!-- novel_testbed.models.ModuleContract&#45;&gt;novel_testbed.models.ReaderState -->
<g id="edge6" class="edge">
<title>novel_testbed.models.ModuleContract&#45;&gt;novel_testbed.models.ReaderState</title>
<path fill="none" stroke="black" d="M1564.98,-222.69C1566.73,-236.74 1568.51,-251.03 1570.24,-264.84"/>
<polygon fill="black" stroke="black" points="1571.45,-274.59 1565.75,-265.22 1570.98,-270.83 1570.21,-264.66 1570.21,-264.66 1570.21,-264.66 1570.98,-270.83 1574.68,-264.11 1571.45,-274.59"/>
<text xml:space="preserve" text-anchor="middle" x="1595.61" y="-244.2" font-family="Times,serif" font-size="14.00" fill="green">post_state</text>
</g>
<!-- novel_testbed.contracts.assessor.ModuleReport -->
<g id="node10" class="node">
<title>novel_testbed.contracts.assessor.ModuleReport</title>
<polygon fill="none" stroke="black" points="1653.5,-41.75 1653.5,-181.25 1797,-181.25 1797,-41.75 1653.5,-41.75"/>
<text xml:space="preserve" text-anchor="start" x="1685.5" y="-163.95" font-family="Times,serif" font-size="14.00">ModuleReport</text>
<polyline fill="none" stroke="black" points="1653.5,-156.75 1797,-156.75"/>
<text xml:space="preserve" text-anchor="start" x="1661.5" y="-139.45" font-family="Times,serif" font-size="14.00">chapter : str</text>
<text xml:space="preserve" text-anchor="start" x="1661.5" y="-122.95" font-family="Times,serif" font-size="14.00">findings : List[Finding]</text>
<text xml:space="preserve" text-anchor="start" x="1661.5" y="-106.45" font-family="Times,serif" font-size="14.00">module_id : str</text>
<text xml:space="preserve" text-anchor="start" x="1661.5" y="-89.95" font-family="Times,serif" font-size="14.00">severity : str</text>
<text xml:space="preserve" text-anchor="start" x="1661.5" y="-73.45" font-family="Times,serif" font-size="14.00">title : str</text>
<polyline fill="none" stroke="black" points="1653.5,-66.25 1797,-66.25"/>
<text xml:space="preserve" text-anchor="start" x="1723.38" y="-48.95" font-family="Times,serif" font-size="14.00"> </text>
</g>
<!-- novel_testbed.contracts.rules.NoChangeRule -->
<g id="node12" class="node">
<title>novel_testbed.contracts.rules.NoChangeRule</title>
<polygon fill="none" stroke="black" points="1815.25,-74.75 1815.25,-148.25 2131.25,-148.25 2131.25,-74.75 1815.25,-74.75"/>
<text xml:space="preserve" text-anchor="start" x="1931.62" y="-130.95" font-family="Times,serif" font-size="14.00">NoChangeRule</text>
<polyline fill="none" stroke="black" points="1815.25,-123.75 2131.25,-123.75"/>
<text xml:space="preserve" text-anchor="start" x="1945.88" y="-106.45" font-family="Times,serif" font-size="14.00">name : str</text>
<polyline fill="none" stroke="black" points="1815.25,-99.25 2131.25,-99.25"/>
<text xml:space="preserve" text-anchor="start" x="1823.25" y="-81.95" font-family="Times,serif" font-size="14.00">evaluate(contract: ModuleContract): Optional[Finding]</text>
</g>
<!-- novel_testbed.models.Novel -->
<g id="node13" class="node">
<title>novel_testbed.models.Novel</title>
<polygon fill="none" stroke="black" points="2149,-66.5 2149,-156.5 2295.5,-156.5 2295.5,-66.5 2149,-66.5"/>
<text xml:space="preserve" text-anchor="start" x="2205.75" y="-139.2" font-family="Times,serif" font-size="14.00">Novel</text>
<polyline fill="none" stroke="black" points="2149,-132 2295.5,-132"/>
<text xml:space="preserve" text-anchor="start" x="2157" y="-114.7" font-family="Times,serif" font-size="14.00">modules : List[Module]</text>
<text xml:space="preserve" text-anchor="start" x="2157" y="-98.2" font-family="Times,serif" font-size="14.00">title : str</text>
<polyline fill="none" stroke="black" points="2149,-91 2295.5,-91"/>
<text xml:space="preserve" text-anchor="start" x="2220.38" y="-73.7" font-family="Times,serif" font-size="14.00"> </text>
</g>
<!-- novel_testbed.inference.llm_inferencer.OpenAIContractInferencer -->
<g id="node15" class="node">
<title>novel_testbed.inference.llm_inferencer.OpenAIContractInferencer</title>
<polygon fill="none" stroke="black" points="182.88,-87 182.88,-136 517.62,-136 517.62,-87 182.88,-87"/>
<text xml:space="preserve" text-anchor="start" x="277.5" y="-118.7" font-family="Times,serif" font-size="14.00">OpenAIContractInferencer</text>
<polyline fill="none" stroke="black" points="182.88,-111.5 517.62,-111.5"/>
<polyline fill="none" stroke="black" points="182.88,-111.5 517.62,-111.5"/>
<text xml:space="preserve" text-anchor="start" x="190.88" y="-94.2" font-family="Times,serif" font-size="14.00">infer(modules: Sequence[Module]): List[ModuleContract]</text>
</g>
<!-- novel_testbed.inference.llm_inferencer.OpenAIContractInferencer&#45;&gt;novel_testbed.inference.base.ContractInferencer -->
<g id="edge1" class="edge">
<title>novel_testbed.inference.llm_inferencer.OpenAIContractInferencer&#45;&gt;novel_testbed.inference.base.ContractInferencer</title>
<path fill="none" stroke="black" d="M350.25,-136.35C350.25,-180.37 350.25,-274.56 350.25,-325.98"/>
<polygon fill="none" stroke="black" points="346.75,-325.96 350.25,-335.96 353.75,-325.96 346.75,-325.96"/>
</g>
<!-- novel_testbed.inference.llm_client.OpenAILLMClient -->
<g id="node16" class="node">
<title>novel_testbed.inference.llm_client.OpenAILLMClient</title>
<polygon fill="none" stroke="black" points="2313.12,-87 2313.12,-136 2475.38,-136 2475.38,-87 2313.12,-87"/>
<text xml:space="preserve" text-anchor="start" x="2341.38" y="-118.7" font-family="Times,serif" font-size="14.00">OpenAILLMClient</text>
<polyline fill="none" stroke="black" points="2313.12,-111.5 2475.38,-111.5"/>
<polyline fill="none" stroke="black" points="2313.12,-111.5 2475.38,-111.5"/>
<text xml:space="preserve" text-anchor="start" x="2321.12" y="-94.2" font-family="Times,serif" font-size="14.00">infer_json(): Dict[str, Any]</text>
</g>
<!-- novel_testbed.contracts.rules.Rule -->
<g id="node18" class="node">
<title>novel_testbed.contracts.rules.Rule</title>
<polygon fill="none" stroke="black" points="2493,-74.75 2493,-148.25 2813.5,-148.25 2813.5,-74.75 2493,-74.75"/>
<text xml:space="preserve" text-anchor="start" x="2640.5" y="-130.95" font-family="Times,serif" font-size="14.00">Rule</text>
<polyline fill="none" stroke="black" points="2493,-123.75 2813.5,-123.75"/>
<text xml:space="preserve" text-anchor="start" x="2625.88" y="-106.45" font-family="Times,serif" font-size="14.00">name : str</text>
<polyline fill="none" stroke="black" points="2493,-99.25 2813.5,-99.25"/>
<text xml:space="preserve" text-anchor="start" x="2501" y="-81.95" font-family="Times,serif" font-size="14.00">evaluate(contract: ModuleContract): Optional[&#39;Finding&#39;]</text>
</g>
<!-- novel_testbed.contracts.rules.UnspecifiedStateRule -->
<g id="node19" class="node">
<title>novel_testbed.contracts.rules.UnspecifiedStateRule</title>
<polygon fill="none" stroke="black" points="2831.25,-74.75 2831.25,-148.25 3147.25,-148.25 3147.25,-74.75 2831.25,-74.75"/>
<text xml:space="preserve" text-anchor="start" x="2930.38" y="-130.95" font-family="Times,serif" font-size="14.00">UnspecifiedStateRule</text>
<polyline fill="none" stroke="black" points="2831.25,-123.75 3147.25,-123.75"/>
<text xml:space="preserve" text-anchor="start" x="2961.88" y="-106.45" font-family="Times,serif" font-size="14.00">name : str</text>
<polyline fill="none" stroke="black" points="2831.25,-99.25 3147.25,-99.25"/>
<text xml:space="preserve" text-anchor="start" x="2839.25" y="-81.95" font-family="Times,serif" font-size="14.00">evaluate(contract: ModuleContract): Optional[Finding]</text>
</g>
</g>
</svg>
