<?xml version="1.0" encoding="UTF-8" standalone="no"?>
<!DOCTYPE svg PUBLIC "-//W3C//DTD SVG 1.1//EN"
 "http://www.w3.org/Graphics/SVG/1.1/DTD/svg11.dtd">
<!-- Generated by graphviz version 14.1.1 (20251213.1925)
 -->
<!-- Title: classes_novel_testbed Pages: 1 -->
<svg width="3424pt" height="544pt"
 viewBox="0.00 0.00 3424.00 544.00" xmlns="http://www.w3.org/2000/svg" xmlns:xlink="http://www.w3.org/1999/xlink">
<g id="graph0" class="graph" transform="scale(1 1) rotate(0) translate(4 540)">
<title>classes_novel_testbed</title>
<polygon fill="white" stroke="none" points="-4,4 -4,-540 3420.25,-540 3420.25,4 -4,4"/>
<!-- novel_testbed.parser.commonmark.CommonMarkNovelParser -->
<g id="node1" class="node">
<title>novel_testbed.parser.commonmark.CommonMarkNovelParser</title>
<polygon fill="none" stroke="black" points="0,-87 0,-136 164.5,-136 164.5,-87 0,-87"/>
<text xml:space="preserve" text-anchor="start" x="8" y="-118.7" font-family="Times,serif" font-size="14.00">CommonMarkNovelParser</text>
<polyline fill="none" stroke="black" points="0,-111.5 164.5,-111.5"/>
<polyline fill="none" stroke="black" points="0,-111.5 164.5,-111.5"/>
<text xml:space="preserve" text-anchor="start" x="22.62" y="-94.2" font-family="Times,serif" font-size="14.00">parse(text: str): Novel</text>
</g>
<!-- novel_testbed.parser.base.NovelParser -->
<g id="node16" class="node">
<title>novel_testbed.parser.base.NovelParser</title>
<polygon fill="none" stroke="black" points="13.88,-337.75 13.88,-386.75 150.62,-386.75 150.62,-337.75 13.88,-337.75"/>
<text xml:space="preserve" text-anchor="start" x="48.88" y="-369.45" font-family="Times,serif" font-size="14.00">NovelParser</text>
<polyline fill="none" stroke="black" points="13.88,-362.25 150.62,-362.25"/>
<polyline fill="none" stroke="black" points="13.88,-362.25 150.62,-362.25"/>
<text xml:space="preserve" text-anchor="start" x="21.88" y="-345.95" font-family="Times,serif" font-style="italic" font-size="14.00">parse</text>
<text xml:space="preserve" text-anchor="start" x="51.88" y="-345.95" font-family="Times,serif" font-size="14.00">(text: str): Novel</text>
</g>
<!-- novel_testbed.parser.commonmark.CommonMarkNovelParser&#45;&gt;novel_testbed.parser.base.NovelParser -->
<g id="edge2" class="edge">
<title>novel_testbed.parser.commonmark.CommonMarkNovelParser&#45;&gt;novel_testbed.parser.base.NovelParser</title>
<path fill="none" stroke="black" d="M82.25,-136.35C82.25,-180.37 82.25,-274.56 82.25,-325.98"/>
<polygon fill="none" stroke="black" points="78.75,-325.96 82.25,-335.96 85.75,-325.96 78.75,-325.96"/>
</g>
<!-- novel_testbed.inference.base.ContractInferencer -->
<g id="node2" class="node">
<title>novel_testbed.inference.base.ContractInferencer</title>
<polygon fill="none" stroke="black" points="168.88,-337.75 168.88,-386.75 503.62,-386.75 503.62,-337.75 168.88,-337.75"/>
<text xml:space="preserve" text-anchor="start" x="285.25" y="-369.45" font-family="Times,serif" font-size="14.00">ContractInferencer</text>
<polyline fill="none" stroke="black" points="168.88,-362.25 503.62,-362.25"/>
<polyline fill="none" stroke="black" points="168.88,-362.25 503.62,-362.25"/>
<text xml:space="preserve" text-anchor="start" x="176.88" y="-345.95" font-family="Times,serif" font-style="italic" font-size="14.00">infer</text>
<text xml:space="preserve" text-anchor="start" x="202.38" y="-345.95" font-family="Times,serif" font-size="14.00">(modules: Sequence[Module]): List[ModuleContract]</text>
</g>
<!-- novel_testbed.contracts.rules.Finding -->
<g id="node3" class="node">
<title>novel_testbed.contracts.rules.Finding</title>
<polygon fill="none" stroke="black" points="790.62,-58.25 790.62,-164.75 877.88,-164.75 877.88,-58.25 790.62,-58.25"/>
<text xml:space="preserve" text-anchor="start" x="813.25" y="-147.45" font-family="Times,serif" font-size="14.00">Finding</text>
<polyline fill="none" stroke="black" points="790.62,-140.25 877.88,-140.25"/>
<text xml:space="preserve" text-anchor="start" x="798.62" y="-122.95" font-family="Times,serif" font-size="14.00">message : str</text>
<text xml:space="preserve" text-anchor="start" x="798.62" y="-106.45" font-family="Times,serif" font-size="14.00">rule : str</text>
<text xml:space="preserve" text-anchor="start" x="798.62" y="-89.95" font-family="Times,serif" font-size="14.00">severity : str</text>
<polyline fill="none" stroke="black" points="790.62,-82.75 877.88,-82.75"/>
<text xml:space="preserve" text-anchor="start" x="832.38" y="-65.45" font-family="Times,serif" font-size="14.00"> </text>
</g>
<!-- novel_testbed.inference.types.InferredModuleContract -->
<g id="node4" class="node">
<title>novel_testbed.inference.types.InferredModuleContract</title>
<polygon fill="none" stroke="black" points="947,-50 947,-173 1117.5,-173 1117.5,-50 947,-50"/>
<text xml:space="preserve" text-anchor="start" x="965.88" y="-155.7" font-family="Times,serif" font-size="14.00">InferredModuleContract</text>
<polyline fill="none" stroke="black" points="947,-148.5 1117.5,-148.5"/>
<text xml:space="preserve" text-anchor="start" x="955" y="-131.2" font-family="Times,serif" font-size="14.00">confidence : float</text>
<text xml:space="preserve" text-anchor="start" x="955" y="-114.7" font-family="Times,serif" font-size="14.00">expected_changes : List[str]</text>
<text xml:space="preserve" text-anchor="start" x="955" y="-98.2" font-family="Times,serif" font-size="14.00">notes : Dict[str, Any] | None</text>
<text xml:space="preserve" text-anchor="start" x="955" y="-81.7" font-family="Times,serif" font-size="14.00">post_state</text>
<polyline fill="none" stroke="black" points="947,-74.5 1117.5,-74.5"/>
<text xml:space="preserve" text-anchor="start" x="1030.38" y="-57.2" font-family="Times,serif" font-size="14.00"> </text>
</g>
<!-- novel_testbed.inference.types.InferredState -->
<g id="node5" class="node">
<title>novel_testbed.inference.types.InferredState</title>
<polygon fill="none" stroke="black" points="926.38,-284.25 926.38,-440.25 1138.12,-440.25 1138.12,-284.25 926.38,-284.25"/>
<text xml:space="preserve" text-anchor="start" x="997" y="-422.95" font-family="Times,serif" font-size="14.00">InferredState</text>
<polyline fill="none" stroke="black" points="926.38,-415.75 1138.12,-415.75"/>
<text xml:space="preserve" text-anchor="start" x="934.38" y="-398.45" font-family="Times,serif" font-size="14.00">agency_level : Optional[float]</text>
<text xml:space="preserve" text-anchor="start" x="934.38" y="-381.95" font-family="Times,serif" font-size="14.00">dominant_fantasy_id : Optional[str]</text>
<text xml:space="preserve" text-anchor="start" x="934.38" y="-365.45" font-family="Times,serif" font-size="14.00">emotional_tone : Optional[str]</text>
<text xml:space="preserve" text-anchor="start" x="934.38" y="-348.95" font-family="Times,serif" font-size="14.00">genre : Optional[str]</text>
<text xml:space="preserve" text-anchor="start" x="934.38" y="-332.45" font-family="Times,serif" font-size="14.00">power_balance : Optional[str]</text>
<text xml:space="preserve" text-anchor="start" x="934.38" y="-315.95" font-family="Times,serif" font-size="14.00">threat_level : Optional[float]</text>
<polyline fill="none" stroke="black" points="926.38,-308.75 1138.12,-308.75"/>
<text xml:space="preserve" text-anchor="start" x="1030.38" y="-291.45" font-family="Times,serif" font-size="14.00"> </text>
</g>
<!-- novel_testbed.inference.types.InferredModuleContract&#45;&gt;novel_testbed.inference.types.InferredState -->
<g id="edge4" class="edge">
<title>novel_testbed.inference.types.InferredModuleContract&#45;&gt;novel_testbed.inference.types.InferredState</title>
<path fill="none" stroke="black" d="M1032.25,-173.35C1032.25,-203.33 1032.25,-240.04 1032.25,-273.04"/>
<polygon fill="black" stroke="black" points="1032.25,-282.85 1027.75,-272.85 1032.25,-279.07 1032.25,-272.85 1032.25,-272.85 1032.25,-272.85 1032.25,-279.07 1036.75,-272.85 1032.25,-282.85"/>
<text xml:space="preserve" text-anchor="middle" x="1059.25" y="-244.2" font-family="Times,serif" font-size="14.00" fill="green">post_state</text>
</g>
<!-- novel_testbed.inference.llm_client.LLMClientConfig -->
<g id="node6" class="node">
<title>novel_testbed.inference.llm_client.LLMClientConfig</title>
<polygon fill="none" stroke="black" points="1135.38,-66.5 1135.38,-156.5 1251.12,-156.5 1251.12,-66.5 1135.38,-66.5"/>
<text xml:space="preserve" text-anchor="start" x="1143.38" y="-139.2" font-family="Times,serif" font-size="14.00">LLMClientConfig</text>
<polyline fill="none" stroke="black" points="1135.38,-132 1251.12,-132"/>
<text xml:space="preserve" text-anchor="start" x="1153.5" y="-114.7" font-family="Times,serif" font-size="14.00">model : str</text>
<text xml:space="preserve" text-anchor="start" x="1153.5" y="-98.2" font-family="Times,serif" font-size="14.00">timeout_s : int</text>
<polyline fill="none" stroke="black" points="1135.38,-91 1251.12,-91"/>
<text xml:space="preserve" text-anchor="start" x="1191.38" y="-73.7" font-family="Times,serif" font-size="14.00"> </text>
</g>
<!-- novel_testbed.segmentation.segmenter.LLMSegmenter -->
<g id="node7" class="node">
<title>novel_testbed.segmentation.segmenter.LLMSegmenter</title>
<polygon fill="none" stroke="black" points="521.38,-325.5 521.38,-399 805.12,-399 805.12,-325.5 521.38,-325.5"/>
<text xml:space="preserve" text-anchor="start" x="619.38" y="-381.7" font-family="Times,serif" font-size="14.00">LLMSegmenter</text>
<polyline fill="none" stroke="black" points="521.38,-374.5 805.12,-374.5"/>
<text xml:space="preserve" text-anchor="start" x="529.38" y="-357.2" font-family="Times,serif" font-size="14.00">inferencer : Optional[OpenAIContractInferencer]</text>
<polyline fill="none" stroke="black" points="521.38,-350 805.12,-350"/>
<text xml:space="preserve" text-anchor="start" x="547.75" y="-332.7" font-family="Times,serif" font-size="14.00">segment_markdown(text: str, title: str): str</text>
</g>
<!-- novel_testbed.segmentation.segmenter.ModuleSegmenter -->
<g id="node12" class="node">
<title>novel_testbed.segmentation.segmenter.ModuleSegmenter</title>
<polygon fill="none" stroke="black" points="539.75,-486.5 539.75,-535.5 786.75,-535.5 786.75,-486.5 539.75,-486.5"/>
<text xml:space="preserve" text-anchor="start" x="612.62" y="-518.2" font-family="Times,serif" font-size="14.00">ModuleSegmenter</text>
<polyline fill="none" stroke="black" points="539.75,-511 786.75,-511"/>
<polyline fill="none" stroke="black" points="539.75,-511 786.75,-511"/>
<text xml:space="preserve" text-anchor="start" x="547.75" y="-493.7" font-family="Times,serif" font-size="14.00">segment_markdown(text: str, title: str): str</text>
</g>
<!-- novel_testbed.segmentation.segmenter.LLMSegmenter&#45;&gt;novel_testbed.segmentation.segmenter.ModuleSegmenter -->
<g id="edge3" class="edge">
<title>novel_testbed.segmentation.segmenter.LLMSegmenter&#45;&gt;novel_testbed.segmentation.segmenter.ModuleSegmenter</title>
<path fill="none" stroke="black" d="M663.25,-399.15C663.25,-422.27 663.25,-452.18 663.25,-475.1"/>
<polygon fill="none" stroke="black" points="659.75,-474.87 663.25,-484.87 666.75,-474.87 659.75,-474.87"/>
</g>
<!-- novel_testbed.contracts.rules.MissingExpectedChangeRule -->
<g id="node8" class="node">
<title>novel_testbed.contracts.rules.MissingExpectedChangeRule</title>
<polygon fill="none" stroke="black" points="1269.25,-74.75 1269.25,-148.25 1585.25,-148.25 1585.25,-74.75 1269.25,-74.75"/>
<text xml:space="preserve" text-anchor="start" x="1346.62" y="-130.95" font-family="Times,serif" font-size="14.00">MissingExpectedChangeRule</text>
<polyline fill="none" stroke="black" points="1269.25,-123.75 1585.25,-123.75"/>
<text xml:space="preserve" text-anchor="start" x="1399.88" y="-106.45" font-family="Times,serif" font-size="14.00">name : str</text>
<polyline fill="none" stroke="black" points="1269.25,-99.25 1585.25,-99.25"/>
<text xml:space="preserve" text-anchor="start" x="1277.25" y="-81.95" font-family="Times,serif" font-size="14.00">evaluate(contract: ModuleContract): Optional[Finding]</text>
</g>
<!-- novel_testbed.models.Module -->
<g id="node9" class="node">
<title>novel_testbed.models.Module</title>
<polygon fill="none" stroke="black" points="1603.38,-0.5 1603.38,-222.5 1755.12,-222.5 1755.12,-0.5 1603.38,-0.5"/>
<text xml:space="preserve" text-anchor="start" x="1657.88" y="-205.2" font-family="Times,serif" font-size="14.00">Module</text>
<polyline fill="none" stroke="black" points="1603.38,-198 1755.12,-198"/>
<text xml:space="preserve" text-anchor="start" x="1611.38" y="-180.7" font-family="Times,serif" font-size="14.00">chapter : str</text>
<text xml:space="preserve" text-anchor="start" x="1611.38" y="-164.2" font-family="Times,serif" font-size="14.00">end_line : int</text>
<text xml:space="preserve" text-anchor="start" x="1611.38" y="-147.7" font-family="Times,serif" font-size="14.00">end_text : str</text>
<text xml:space="preserve" text-anchor="start" x="1611.38" y="-131.2" font-family="Times,serif" font-size="14.00">id : str</text>
<text xml:space="preserve" text-anchor="start" x="1611.38" y="-114.7" font-family="Times,serif" font-size="14.00">metadata : Dict[str, Any]</text>
<text xml:space="preserve" text-anchor="start" x="1611.38" y="-98.2" font-family="Times,serif" font-size="14.00">module_type</text>
<text xml:space="preserve" text-anchor="start" x="1611.38" y="-81.7" font-family="Times,serif" font-size="14.00">start_line : int</text>
<text xml:space="preserve" text-anchor="start" x="1611.38" y="-65.2" font-family="Times,serif" font-size="14.00">start_text : str</text>
<text xml:space="preserve" text-anchor="start" x="1611.38" y="-48.7" font-family="Times,serif" font-size="14.00">text : str</text>
<text xml:space="preserve" text-anchor="start" x="1611.38" y="-32.2" font-family="Times,serif" font-size="14.00">title : str</text>
<polyline fill="none" stroke="black" points="1603.38,-25 1755.12,-25"/>
<text xml:space="preserve" text-anchor="start" x="1677.38" y="-7.7" font-family="Times,serif" font-size="14.00"> </text>
</g>
<!-- novel_testbed.models.ModuleType -->
<g id="node13" class="node">
<title>novel_testbed.models.ModuleType</title>
<polygon fill="none" stroke="black" points="1636,-325.5 1636,-399 1722.5,-399 1722.5,-325.5 1636,-325.5"/>
<text xml:space="preserve" text-anchor="start" x="1644" y="-381.7" font-family="Times,serif" font-size="14.00">ModuleType</text>
<polyline fill="none" stroke="black" points="1636,-374.5 1722.5,-374.5"/>
<text xml:space="preserve" text-anchor="start" x="1664.25" y="-357.2" font-family="Times,serif" font-size="14.00">name</text>
<polyline fill="none" stroke="black" points="1636,-350 1722.5,-350"/>
<text xml:space="preserve" text-anchor="start" x="1677.38" y="-332.7" font-family="Times,serif" font-size="14.00"> </text>
</g>
<!-- novel_testbed.models.Module&#45;&gt;novel_testbed.models.ModuleType -->
<g id="edge5" class="edge">
<title>novel_testbed.models.Module&#45;&gt;novel_testbed.models.ModuleType</title>
<path fill="none" stroke="black" d="M1679.25,-222.69C1679.25,-254.84 1679.25,-288.27 1679.25,-314.24"/>
<polygon fill="black" stroke="black" points="1679.25,-324.03 1674.75,-314.03 1679.25,-320.25 1679.25,-314.03 1679.25,-314.03 1679.25,-314.03 1679.25,-320.25 1683.75,-314.03 1679.25,-324.03"/>
<text xml:space="preserve" text-anchor="middle" x="1714.88" y="-244.2" font-family="Times,serif" font-size="14.00" fill="green">module_type</text>
</g>
<!-- novel_testbed.models.ModuleContract -->
<g id="node10" class="node">
<title>novel_testbed.models.ModuleContract</title>
<polygon fill="none" stroke="black" points="1772.75,-0.5 1772.75,-222.5 1941.75,-222.5 1941.75,-0.5 1772.75,-0.5"/>
<text xml:space="preserve" text-anchor="start" x="1812.62" y="-205.2" font-family="Times,serif" font-size="14.00">ModuleContract</text>
<polyline fill="none" stroke="black" points="1772.75,-198 1941.75,-198"/>
<text xml:space="preserve" text-anchor="start" x="1780.75" y="-180.7" font-family="Times,serif" font-size="14.00">anchors : Dict[str, str]</text>
<text xml:space="preserve" text-anchor="start" x="1780.75" y="-164.2" font-family="Times,serif" font-size="14.00">chapter : str</text>
<text xml:space="preserve" text-anchor="start" x="1780.75" y="-147.7" font-family="Times,serif" font-size="14.00">expected_changes : List[str]</text>
<text xml:space="preserve" text-anchor="start" x="1780.75" y="-131.2" font-family="Times,serif" font-size="14.00">fantasy_id : Optional[str]</text>
<text xml:space="preserve" text-anchor="start" x="1780.75" y="-114.7" font-family="Times,serif" font-size="14.00">module_id : str</text>
<text xml:space="preserve" text-anchor="start" x="1780.75" y="-98.2" font-family="Times,serif" font-size="14.00">module_title : str</text>
<text xml:space="preserve" text-anchor="start" x="1780.75" y="-81.7" font-family="Times,serif" font-size="14.00">module_type : Optional[str]</text>
<text xml:space="preserve" text-anchor="start" x="1780.75" y="-65.2" font-family="Times,serif" font-size="14.00">page_range : Optional[str]</text>
<text xml:space="preserve" text-anchor="start" x="1780.75" y="-48.7" font-family="Times,serif" font-size="14.00">post_state</text>
<text xml:space="preserve" text-anchor="start" x="1780.75" y="-32.2" font-family="Times,serif" font-size="14.00">pre_state</text>
<polyline fill="none" stroke="black" points="1772.75,-25 1941.75,-25"/>
<text xml:space="preserve" text-anchor="start" x="1855.38" y="-7.7" font-family="Times,serif" font-size="14.00"> </text>
</g>
<!-- novel_testbed.models.ReaderState -->
<g id="node19" class="node">
<title>novel_testbed.models.ReaderState</title>
<polygon fill="none" stroke="black" points="1782.38,-276 1782.38,-448.5 1994.12,-448.5 1994.12,-276 1782.38,-276"/>
<text xml:space="preserve" text-anchor="start" x="1855.62" y="-431.2" font-family="Times,serif" font-size="14.00">ReaderState</text>
<polyline fill="none" stroke="black" points="1782.38,-424 1994.12,-424"/>
<text xml:space="preserve" text-anchor="start" x="1790.38" y="-406.7" font-family="Times,serif" font-size="14.00">agency_level : Optional[float]</text>
<text xml:space="preserve" text-anchor="start" x="1790.38" y="-390.2" font-family="Times,serif" font-size="14.00">dominant_fantasy_id : Optional[str]</text>
<text xml:space="preserve" text-anchor="start" x="1790.38" y="-373.7" font-family="Times,serif" font-size="14.00">emotional_tone : Optional[str]</text>
<text xml:space="preserve" text-anchor="start" x="1790.38" y="-357.2" font-family="Times,serif" font-size="14.00">genre : Optional[str]</text>
<text xml:space="preserve" text-anchor="start" x="1790.38" y="-340.7" font-family="Times,serif" font-size="14.00">notes : Dict[str, Any]</text>
<text xml:space="preserve" text-anchor="start" x="1790.38" y="-324.2" font-family="Times,serif" font-size="14.00">power_balance : Optional[str]</text>
<text xml:space="preserve" text-anchor="start" x="1790.38" y="-307.7" font-family="Times,serif" font-size="14.00">threat_level : Optional[float]</text>
<polyline fill="none" stroke="black" points="1782.38,-300.5 1994.12,-300.5"/>
<text xml:space="preserve" text-anchor="start" x="1886.38" y="-283.2" font-family="Times,serif" font-size="14.00"> </text>
</g>
<!-- novel_testbed.models.ModuleContract&#45;&gt;novel_testbed.models.ReaderState -->
<g id="edge6" class="edge">
<title>novel_testbed.models.ModuleContract&#45;&gt;novel_testbed.models.ReaderState</title>
<path fill="none" stroke="black" d="M1818.73,-222.83C1818.22,-234.58 1819.25,-246.31 1822.5,-257.5 1823.24,-260.05 1824.06,-262.59 1824.96,-265.13"/>
<polygon fill="black" stroke="black" points="1828.59,-274.37 1820.74,-266.71 1827.21,-270.85 1824.93,-265.06 1824.93,-265.06 1824.93,-265.06 1827.21,-270.85 1829.12,-263.42 1828.59,-274.37"/>
<text xml:space="preserve" text-anchor="middle" x="1846.88" y="-244.2" font-family="Times,serif" font-size="14.00" fill="green">pre_state</text>
</g>
<!-- novel_testbed.models.ModuleContract&#45;&gt;novel_testbed.models.ReaderState -->
<g id="edge7" class="edge">
<title>novel_testbed.models.ModuleContract&#45;&gt;novel_testbed.models.ReaderState</title>
<path fill="none" stroke="black" d="M1870.98,-222.69C1872.73,-236.74 1874.51,-251.03 1876.24,-264.84"/>
<polygon fill="black" stroke="black" points="1877.45,-274.59 1871.75,-265.22 1876.98,-270.83 1876.21,-264.66 1876.21,-264.66 1876.21,-264.66 1876.98,-270.83 1880.68,-264.11 1877.45,-274.59"/>
<text xml:space="preserve" text-anchor="middle" x="1901.61" y="-244.2" font-family="Times,serif" font-size="14.00" fill="green">post_state</text>
</g>
<!-- novel_testbed.contracts.assessor.ModuleReport -->
<g id="node11" class="node">
<title>novel_testbed.contracts.assessor.ModuleReport</title>
<polygon fill="none" stroke="black" points="1959.5,-41.75 1959.5,-181.25 2103,-181.25 2103,-41.75 1959.5,-41.75"/>
<text xml:space="preserve" text-anchor="start" x="1991.5" y="-163.95" font-family="Times,serif" font-size="14.00">ModuleReport</text>
<polyline fill="none" stroke="black" points="1959.5,-156.75 2103,-156.75"/>
<text xml:space="preserve" text-anchor="start" x="1967.5" y="-139.45" font-family="Times,serif" font-size="14.00">chapter : str</text>
<text xml:space="preserve" text-anchor="start" x="1967.5" y="-122.95" font-family="Times,serif" font-size="14.00">findings : List[Finding]</text>
<text xml:space="preserve" text-anchor="start" x="1967.5" y="-106.45" font-family="Times,serif" font-size="14.00">module_id : str</text>
<text xml:space="preserve" text-anchor="start" x="1967.5" y="-89.95" font-family="Times,serif" font-size="14.00">severity : str</text>
<text xml:space="preserve" text-anchor="start" x="1967.5" y="-73.45" font-family="Times,serif" font-size="14.00">title : str</text>
<polyline fill="none" stroke="black" points="1959.5,-66.25 2103,-66.25"/>
<text xml:space="preserve" text-anchor="start" x="2029.38" y="-48.95" font-family="Times,serif" font-size="14.00"> </text>
</g>
<!-- novel_testbed.contracts.rules.NoChangeRule -->
<g id="node14" class="node">
<title>novel_testbed.contracts.rules.NoChangeRule</title>
<polygon fill="none" stroke="black" points="2121,-74.75 2121,-148.25 2399.5,-148.25 2399.5,-74.75 2121,-74.75"/>
<text xml:space="preserve" text-anchor="start" x="2218.62" y="-130.95" font-family="Times,serif" font-size="14.00">NoChangeRule</text>
<polyline fill="none" stroke="black" points="2121,-123.75 2399.5,-123.75"/>
<text xml:space="preserve" text-anchor="start" x="2232.88" y="-106.45" font-family="Times,serif" font-size="14.00">name : str</text>
<polyline fill="none" stroke="black" points="2121,-99.25 2399.5,-99.25"/>
<text xml:space="preserve" text-anchor="start" x="2129" y="-81.95" font-family="Times,serif" font-size="14.00">evaluate(c: ModuleContract): Optional[Finding]</text>
</g>
<!-- novel_testbed.models.Novel -->
<g id="node15" class="node">
<title>novel_testbed.models.Novel</title>
<polygon fill="none" stroke="black" points="2418,-66.5 2418,-156.5 2564.5,-156.5 2564.5,-66.5 2418,-66.5"/>
<text xml:space="preserve" text-anchor="start" x="2474.75" y="-139.2" font-family="Times,serif" font-size="14.00">Novel</text>
<polyline fill="none" stroke="black" points="2418,-132 2564.5,-132"/>
<text xml:space="preserve" text-anchor="start" x="2426" y="-114.7" font-family="Times,serif" font-size="14.00">modules : List[Module]</text>
<text xml:space="preserve" text-anchor="start" x="2426" y="-98.2" font-family="Times,serif" font-size="14.00">title : str</text>
<polyline fill="none" stroke="black" points="2418,-91 2564.5,-91"/>
<text xml:space="preserve" text-anchor="start" x="2489.38" y="-73.7" font-family="Times,serif" font-size="14.00"> </text>
</g>
<!-- novel_testbed.inference.llm_inferencer.OpenAIContractInferencer -->
<g id="node17" class="node">
<title>novel_testbed.inference.llm_inferencer.OpenAIContractInferencer</title>
<polygon fill="none" stroke="black" points="336.88,-87 336.88,-136 671.62,-136 671.62,-87 336.88,-87"/>
<text xml:space="preserve" text-anchor="start" x="431.5" y="-118.7" font-family="Times,serif" font-size="14.00">OpenAIContractInferencer</text>
<polyline fill="none" stroke="black" points="336.88,-111.5 671.62,-111.5"/>
<polyline fill="none" stroke="black" points="336.88,-111.5 671.62,-111.5"/>
<text xml:space="preserve" text-anchor="start" x="344.88" y="-94.2" font-family="Times,serif" font-size="14.00">infer(modules: Sequence[Module]): List[ModuleContract]</text>
</g>
<!-- novel_testbed.inference.llm_inferencer.OpenAIContractInferencer&#45;&gt;novel_testbed.inference.base.ContractInferencer -->
<g id="edge1" class="edge">
<title>novel_testbed.inference.llm_inferencer.OpenAIContractInferencer&#45;&gt;novel_testbed.inference.base.ContractInferencer</title>
<path fill="none" stroke="black" d="M488.14,-136.35C457.97,-181.02 392.91,-277.35 358.55,-328.23"/>
<polygon fill="none" stroke="black" points="355.85,-325.97 353.16,-336.22 361.65,-329.89 355.85,-325.97"/>
</g>
<!-- novel_testbed.inference.llm_inferencer.OpenAIContractInferencer&#45;&gt;novel_testbed.segmentation.segmenter.LLMSegmenter -->
<g id="edge8" class="edge">
<title>novel_testbed.inference.llm_inferencer.OpenAIContractInferencer&#45;&gt;novel_testbed.segmentation.segmenter.LLMSegmenter</title>
<path fill="none" stroke="black" d="M519.5,-136.35C545.62,-177.22 599.39,-261.34 633.25,-314.32"/>
<polygon fill="none" stroke="black" points="633.21,-314.26 639.82,-317.16 639.68,-324.37 633.07,-321.47 633.21,-314.26"/>
<text xml:space="preserve" text-anchor="middle" x="620.64" y="-244.2" font-family="Times,serif" font-size="14.00" fill="green">inferencer</text>
</g>
<!-- novel_testbed.inference.llm_client.OpenAILLMClient -->
<g id="node18" class="node">
<title>novel_testbed.inference.llm_client.OpenAILLMClient</title>
<polygon fill="none" stroke="black" points="2582.12,-87 2582.12,-136 2744.38,-136 2744.38,-87 2582.12,-87"/>
<text xml:space="preserve" text-anchor="start" x="2610.38" y="-118.7" font-family="Times,serif" font-size="14.00">OpenAILLMClient</text>
<polyline fill="none" stroke="black" points="2582.12,-111.5 2744.38,-111.5"/>
<polyline fill="none" stroke="black" points="2582.12,-111.5 2744.38,-111.5"/>
<text xml:space="preserve" text-anchor="start" x="2590.12" y="-94.2" font-family="Times,serif" font-size="14.00">infer_json(): Dict[str, Any]</text>
</g>
<!-- novel_testbed.contracts.rules.Rule -->
<g id="node20" class="node">
<title>novel_testbed.contracts.rules.Rule</title>
<polygon fill="none" stroke="black" points="2762,-74.75 2762,-148.25 3082.5,-148.25 3082.5,-74.75 2762,-74.75"/>
<text xml:space="preserve" text-anchor="start" x="2909.5" y="-130.95" font-family="Times,serif" font-size="14.00">Rule</text>
<polyline fill="none" stroke="black" points="2762,-123.75 3082.5,-123.75"/>
<text xml:space="preserve" text-anchor="start" x="2894.88" y="-106.45" font-family="Times,serif" font-size="14.00">name : str</text>
<polyline fill="none" stroke="black" points="2762,-99.25 3082.5,-99.25"/>
<text xml:space="preserve" text-anchor="start" x="2770" y="-81.95" font-family="Times,serif" font-size="14.00">evaluate(contract: ModuleContract): Optional[&#39;Finding&#39;]</text>
</g>
<!-- novel_testbed.contracts.rules.UnspecifiedStateRule -->
<g id="node21" class="node">
<title>novel_testbed.contracts.rules.UnspecifiedStateRule</title>
<polygon fill="none" stroke="black" points="3100.25,-74.75 3100.25,-148.25 3416.25,-148.25 3416.25,-74.75 3100.25,-74.75"/>
<text xml:space="preserve" text-anchor="start" x="3199.38" y="-130.95" font-family="Times,serif" font-size="14.00">UnspecifiedStateRule</text>
<polyline fill="none" stroke="black" points="3100.25,-123.75 3416.25,-123.75"/>
<text xml:space="preserve" text-anchor="start" x="3230.88" y="-106.45" font-family="Times,serif" font-size="14.00">name : str</text>
<polyline fill="none" stroke="black" points="3100.25,-99.25 3416.25,-99.25"/>
<text xml:space="preserve" text-anchor="start" x="3108.25" y="-81.95" font-family="Times,serif" font-size="14.00">evaluate(contract: ModuleContract): Optional[Finding]</text>
</g>
</g>
</svg>
