<?xml version="1.0" encoding="UTF-8" standalone="no"?>
<!DOCTYPE svg PUBLIC "-//W3C//DTD SVG 1.1//EN"
 "http://www.w3.org/Graphics/SVG/1.1/DTD/svg11.dtd">
<!-- Generated by graphviz version 14.1.1 (20251213.1925)
 -->
<!-- Title: packages_novel_testbed Pages: 1 -->
<svg width="1368pt" height="332pt"
 viewBox="0.00 0.00 1368.00 332.00" xmlns="http://www.w3.org/2000/svg" xmlns:xlink="http://www.w3.org/1999/xlink">
<g id="graph0" class="graph" transform="scale(1 1) rotate(0) translate(4 328)">
<title>packages_novel_testbed</title>
<polygon fill="white" stroke="none" points="-4,4 -4,-328 1364.02,-328 1364.02,4 -4,4"/>
<!-- novel_testbed -->
<g id="node1" class="node">
<title>novel_testbed</title>
<polygon fill="none" stroke="black" points="474.9,-36 383.9,-36 383.9,0 474.9,0 474.9,-36"/>
<text xml:space="preserve" text-anchor="start" x="391.9" y="-12.95" font-family="Times,serif" font-size="14.00">novel_testbed</text>
</g>
<!-- novel_testbed.contracts.assessor -->
<g id="node4" class="node">
<title>novel_testbed.contracts.assessor</title>
<polygon fill="none" stroke="black" points="240.15,-108 48.65,-108 48.65,-72 240.15,-72 240.15,-108"/>
<text xml:space="preserve" text-anchor="start" x="56.65" y="-84.95" font-family="Times,serif" font-size="14.00">novel_testbed.contracts.assessor</text>
</g>
<!-- novel_testbed&#45;&gt;novel_testbed.contracts.assessor -->
<g id="edge1" class="edge">
<title>novel_testbed&#45;&gt;novel_testbed.contracts.assessor</title>
<path fill="none" stroke="black" d="M383.61,-30.25C341.23,-40.66 277.24,-56.37 226.1,-68.93"/>
<polygon fill="black" stroke="black" points="216.58,-71.27 225.22,-64.52 220.26,-70.37 226.29,-68.89 226.29,-68.89 226.29,-68.89 220.26,-70.37 227.37,-73.26 216.58,-71.27"/>
</g>
<!-- novel_testbed.contracts.contract -->
<g id="node5" class="node">
<title>novel_testbed.contracts.contract</title>
<polygon fill="none" stroke="black" points="524.77,-108 334.02,-108 334.02,-72 524.77,-72 524.77,-108"/>
<text xml:space="preserve" text-anchor="start" x="342.02" y="-84.95" font-family="Times,serif" font-size="14.00">novel_testbed.contracts.contract</text>
</g>
<!-- novel_testbed&#45;&gt;novel_testbed.contracts.contract -->
<g id="edge2" class="edge">
<title>novel_testbed&#45;&gt;novel_testbed.contracts.contract</title>
<path fill="none" stroke="black" d="M429.4,-36.3C429.4,-43.68 429.4,-52.48 429.4,-60.75"/>
<polygon fill="black" stroke="black" points="429.4,-70.68 424.9,-60.68 429.4,-66.9 429.4,-60.68 429.4,-60.68 429.4,-60.68 429.4,-66.9 433.9,-60.68 429.4,-70.68"/>
</g>
<!-- novel_testbed.inference.auto_contract -->
<g id="node8" class="node">
<title>novel_testbed.inference.auto_contract</title>
<polygon fill="none" stroke="black" points="840.52,-108 618.27,-108 618.27,-72 840.52,-72 840.52,-108"/>
<text xml:space="preserve" text-anchor="start" x="626.27" y="-84.95" font-family="Times,serif" font-size="14.00">novel_testbed.inference.auto_contract</text>
</g>
<!-- novel_testbed&#45;&gt;novel_testbed.inference.auto_contract -->
<g id="edge3" class="edge">
<title>novel_testbed&#45;&gt;novel_testbed.inference.auto_contract</title>
<path fill="none" stroke="black" d="M475.29,-29.71C519.99,-40.14 589.04,-56.25 643.88,-69.04"/>
<polygon fill="black" stroke="black" points="653.46,-71.28 642.7,-73.39 649.78,-70.42 643.72,-69.01 643.72,-69.01 643.72,-69.01 649.78,-70.42 644.74,-64.63 653.46,-71.28"/>
</g>
<!-- novel_testbed.inference.base -->
<g id="node9" class="node">
<title>novel_testbed.inference.base</title>
<polygon fill="none" stroke="black" points="732.77,-180 560.02,-180 560.02,-144 732.77,-144 732.77,-180"/>
<text xml:space="preserve" text-anchor="start" x="568.02" y="-156.95" font-family="Times,serif" font-size="14.00">novel_testbed.inference.base</text>
</g>
<!-- novel_testbed&#45;&gt;novel_testbed.inference.base -->
<g id="edge4" class="edge">
<title>novel_testbed&#45;&gt;novel_testbed.inference.base</title>
<path fill="none" stroke="black" d="M467.94,-36.41C487.98,-46.01 512.57,-58.67 533.4,-72 564.04,-91.61 596.4,-117.71 618.6,-136.58"/>
<polygon fill="black" stroke="black" points="625.95,-142.88 615.43,-139.79 623.08,-140.42 618.36,-136.37 618.36,-136.37 618.36,-136.37 623.08,-140.42 621.29,-132.96 625.95,-142.88"/>
</g>
<!-- novel_testbed.inference.llm_client -->
<g id="node10" class="node">
<title>novel_testbed.inference.llm_client</title>
<polygon fill="none" stroke="black" points="1264.52,-180 1060.27,-180 1060.27,-144 1264.52,-144 1264.52,-180"/>
<text xml:space="preserve" text-anchor="start" x="1068.27" y="-156.95" font-family="Times,serif" font-size="14.00">novel_testbed.inference.llm_client</text>
</g>
<!-- novel_testbed&#45;&gt;novel_testbed.inference.llm_client -->
<g id="edge5" class="edge">
<title>novel_testbed&#45;&gt;novel_testbed.inference.llm_client</title>
<path fill="none" stroke="black" d="M475.31,-22.39C625.13,-33.48 1090.58,-68.19 1097.4,-72 1110.41,-79.27 1131.65,-110.64 1146.29,-134.09"/>
<polygon fill="black" stroke="black" points="1151.48,-142.52 1142.4,-136.36 1149.49,-139.3 1146.24,-134.01 1146.24,-134.01 1146.24,-134.01 1149.49,-139.3 1150.07,-131.65 1151.48,-142.52"/>
</g>
<!-- novel_testbed.inference.llm_inferencer -->
<g id="node11" class="node">
<title>novel_testbed.inference.llm_inferencer</title>
<polygon fill="none" stroke="black" points="1087.9,-108 858.9,-108 858.9,-72 1087.9,-72 1087.9,-108"/>
<text xml:space="preserve" text-anchor="start" x="866.9" y="-84.95" font-family="Times,serif" font-size="14.00">novel_testbed.inference.llm_inferencer</text>
</g>
<!-- novel_testbed&#45;&gt;novel_testbed.inference.llm_inferencer -->
<g id="edge6" class="edge">
<title>novel_testbed&#45;&gt;novel_testbed.inference.llm_inferencer</title>
<path fill="none" stroke="black" d="M475.1,-24.6C550.31,-33.86 705.2,-53.08 847.47,-71.75"/>
<polygon fill="black" stroke="black" points="857.35,-73.05 846.85,-76.21 853.6,-72.56 847.43,-71.75 847.43,-71.75 847.43,-71.75 853.6,-72.56 848.02,-67.29 857.35,-73.05"/>
</g>
<!-- novel_testbed.models -->
<g id="node15" class="node">
<title>novel_testbed.models</title>
<polygon fill="none" stroke="black" points="478.65,-324 344.15,-324 344.15,-288 478.65,-288 478.65,-324"/>
<text xml:space="preserve" text-anchor="start" x="352.15" y="-300.95" font-family="Times,serif" font-size="14.00">novel_testbed.models</text>
</g>
<!-- novel_testbed&#45;&gt;novel_testbed.models -->
<g id="edge7" class="edge">
<title>novel_testbed&#45;&gt;novel_testbed.models</title>
<path fill="none" stroke="black" d="M383.7,-21.88C285.58,-28.53 61.79,-46.36 39.4,-72 -13.22,-132.26 -13.03,-191.57 39.4,-252 76.6,-294.88 235.16,-303.95 332.87,-305.37"/>
<polygon fill="black" stroke="black" points="342.67,-305.48 332.61,-309.86 338.88,-305.44 332.67,-305.36 332.67,-305.36 332.67,-305.36 338.88,-305.44 332.72,-300.86 342.67,-305.48"/>
</g>
<!-- novel_testbed.parser.base -->
<g id="node17" class="node">
<title>novel_testbed.parser.base</title>
<polygon fill="none" stroke="black" points="488.77,-252 334.02,-252 334.02,-216 488.77,-216 488.77,-252"/>
<text xml:space="preserve" text-anchor="start" x="342.02" y="-228.95" font-family="Times,serif" font-size="14.00">novel_testbed.parser.base</text>
</g>
<!-- novel_testbed&#45;&gt;novel_testbed.parser.base -->
<g id="edge8" class="edge">
<title>novel_testbed&#45;&gt;novel_testbed.parser.base</title>
<path fill="none" stroke="black" d="M383.67,-27.83C358.92,-35.2 330.42,-48.45 315.4,-72 303.56,-90.56 317.03,-167.17 325.4,-180 333.42,-192.29 345.38,-202.21 357.86,-209.99"/>
<polygon fill="black" stroke="black" points="366.39,-214.92 355.48,-213.81 363.11,-213.03 357.73,-209.91 357.73,-209.91 357.73,-209.91 363.11,-213.03 359.98,-206.02 366.39,-214.92"/>
</g>
<!-- novel_testbed.parser.commonmark -->
<g id="node18" class="node">
<title>novel_testbed.parser.commonmark</title>
<polygon fill="none" stroke="black" points="542.4,-180 334.4,-180 334.4,-144 542.4,-144 542.4,-180"/>
<text xml:space="preserve" text-anchor="start" x="342.4" y="-156.95" font-family="Times,serif" font-size="14.00">novel_testbed.parser.commonmark</text>
</g>
<!-- novel_testbed&#45;&gt;novel_testbed.parser.commonmark -->
<g id="edge9" class="edge">
<title>novel_testbed&#45;&gt;novel_testbed.parser.commonmark</title>
<path fill="none" stroke="black" d="M383.56,-30.33C361.95,-38.22 338.16,-51.18 325.4,-72 317.04,-85.64 316.82,-94.5 325.4,-108 333.8,-121.22 346.48,-131.21 360.34,-138.72"/>
<polygon fill="black" stroke="black" points="368.99,-143 358.03,-142.6 365.6,-141.33 360.03,-138.57 360.03,-138.57 360.03,-138.57 365.6,-141.33 362.02,-134.54 368.99,-143"/>
</g>
<!-- novel_testbed.cli -->
<g id="node2" class="node">
<title>novel_testbed.cli</title>
<polygon fill="none" stroke="black" points="783.52,-36 675.27,-36 675.27,0 783.52,0 783.52,-36"/>
<text xml:space="preserve" text-anchor="start" x="683.27" y="-12.95" font-family="Times,serif" font-size="14.00">novel_testbed.cli</text>
</g>
<!-- novel_testbed.cli&#45;&gt;novel_testbed.contracts.assessor -->
<g id="edge10" class="edge">
<title>novel_testbed.cli&#45;&gt;novel_testbed.contracts.assessor</title>
<path fill="none" stroke="black" d="M674.89,-25.52C578.59,-37.05 376.75,-61.2 251.68,-76.16"/>
<polygon fill="black" stroke="black" points="241.78,-77.35 251.17,-71.69 245.53,-76.9 251.71,-76.16 251.71,-76.16 251.71,-76.16 245.53,-76.9 252.24,-80.63 241.78,-77.35"/>
</g>
<!-- novel_testbed.cli&#45;&gt;novel_testbed.contracts.contract -->
<g id="edge11" class="edge">
<title>novel_testbed.cli&#45;&gt;novel_testbed.contracts.contract</title>
<path fill="none" stroke="black" d="M675.07,-31.68C630.46,-42.09 566.47,-57.02 514.98,-69.03"/>
<polygon fill="black" stroke="black" points="505.38,-71.27 514.1,-64.62 509.07,-70.41 515.12,-69 515.12,-69 515.12,-69 509.07,-70.41 516.14,-73.38 505.38,-71.27"/>
</g>
<!-- novel_testbed.cli&#45;&gt;novel_testbed.inference.auto_contract -->
<g id="edge12" class="edge">
<title>novel_testbed.cli&#45;&gt;novel_testbed.inference.auto_contract</title>
<path fill="none" stroke="black" d="M729.4,-36.3C729.4,-43.68 729.4,-52.48 729.4,-60.75"/>
<polygon fill="black" stroke="black" points="729.4,-70.68 724.9,-60.68 729.4,-66.9 729.4,-60.68 729.4,-60.68 729.4,-60.68 729.4,-66.9 733.9,-60.68 729.4,-70.68"/>
</g>
<!-- novel_testbed.cli&#45;&gt;novel_testbed.inference.llm_client -->
<g id="edge13" class="edge">
<title>novel_testbed.cli&#45;&gt;novel_testbed.inference.llm_client</title>
<path fill="none" stroke="black" d="M783.91,-34.27C786.77,-34.9 789.62,-35.48 792.4,-36 866.65,-49.88 1071,-25.34 1130.4,-72 1148.86,-86.5 1156.68,-112.56 1159.99,-132.74"/>
<polygon fill="black" stroke="black" points="1161.3,-142.61 1155.52,-133.29 1160.8,-138.86 1159.98,-132.7 1159.98,-132.7 1159.98,-132.7 1160.8,-138.86 1164.44,-132.1 1161.3,-142.61"/>
</g>
<!-- novel_testbed.cli&#45;&gt;novel_testbed.inference.llm_inferencer -->
<g id="edge14" class="edge">
<title>novel_testbed.cli&#45;&gt;novel_testbed.inference.llm_inferencer</title>
<path fill="none" stroke="black" d="M783.85,-34.62C818.77,-44.64 864.48,-57.75 902.25,-68.59"/>
<polygon fill="black" stroke="black" points="911.51,-71.25 900.66,-72.81 907.88,-70.2 901.9,-68.49 901.9,-68.49 901.9,-68.49 907.88,-70.2 903.14,-64.16 911.51,-71.25"/>
</g>
<!-- novel_testbed.logging_config -->
<g id="node14" class="node">
<title>novel_testbed.logging_config</title>
<polygon fill="none" stroke="black" points="1360.02,-108 1182.77,-108 1182.77,-72 1360.02,-72 1360.02,-108"/>
<text xml:space="preserve" text-anchor="start" x="1190.77" y="-84.95" font-family="Times,serif" font-size="14.00">novel_testbed.logging_config</text>
</g>
<!-- novel_testbed.cli&#45;&gt;novel_testbed.logging_config -->
<g id="edge15" class="edge">
<title>novel_testbed.cli&#45;&gt;novel_testbed.logging_config</title>
<path fill="none" stroke="black" d="M783.91,-34.31C786.77,-34.93 789.61,-35.49 792.4,-36 957.58,-65.97 1001.93,-50.32 1168.4,-72 1169.4,-72.13 1170.41,-72.26 1171.42,-72.4"/>
<polygon fill="black" stroke="black" points="1181.2,-73.76 1170.68,-76.84 1177.46,-73.24 1171.3,-72.38 1171.3,-72.38 1171.3,-72.38 1177.46,-73.24 1171.92,-67.92 1181.2,-73.76"/>
</g>
<!-- novel_testbed.cli&#45;&gt;novel_testbed.parser.commonmark -->
<g id="edge16" class="edge">
<title>novel_testbed.cli&#45;&gt;novel_testbed.parser.commonmark</title>
<path fill="none" stroke="black" d="M688.28,-36.39C664.97,-46.44 635.37,-59.52 609.4,-72 564.65,-93.5 514.34,-119.97 479.94,-138.43"/>
<polygon fill="black" stroke="black" points="471.31,-143.07 477.98,-134.37 474.64,-141.28 480.12,-138.33 480.12,-138.33 480.12,-138.33 474.64,-141.28 482.25,-142.3 471.31,-143.07"/>
</g>
<!-- novel_testbed.contracts -->
<g id="node3" class="node">
<title>novel_testbed.contracts</title>
<polygon fill="none" stroke="black" points="945.15,-36 801.65,-36 801.65,0 945.15,0 945.15,-36"/>
<text xml:space="preserve" text-anchor="start" x="809.65" y="-12.95" font-family="Times,serif" font-size="14.00">novel_testbed.contracts</text>
</g>
<!-- novel_testbed.contracts.rules -->
<g id="node6" class="node">
<title>novel_testbed.contracts.rules</title>
<polygon fill="none" stroke="black" points="222.15,-252 48.65,-252 48.65,-216 222.15,-216 222.15,-252"/>
<text xml:space="preserve" text-anchor="start" x="56.65" y="-228.95" font-family="Times,serif" font-size="14.00">novel_testbed.contracts.rules</text>
</g>
<!-- novel_testbed.contracts.assessor&#45;&gt;novel_testbed.contracts.rules -->
<g id="edge17" class="edge">
<title>novel_testbed.contracts.assessor&#45;&gt;novel_testbed.contracts.rules</title>
<path fill="none" stroke="black" d="M143.3,-108.41C141.77,-132.5 139,-176.25 137.18,-204.97"/>
<polygon fill="black" stroke="black" points="136.56,-214.67 132.7,-204.41 136.8,-210.9 137.19,-204.69 137.19,-204.69 137.19,-204.69 136.8,-210.9 141.68,-204.98 136.56,-214.67"/>
</g>
<!-- novel_testbed.contracts.assessor&#45;&gt;novel_testbed.models -->
<g id="edge18" class="edge">
<title>novel_testbed.contracts.assessor&#45;&gt;novel_testbed.models</title>
<path fill="none" stroke="black" d="M158.55,-108.3C185.03,-139.88 244.98,-207.69 306.4,-252 322.67,-263.73 341.91,-274.27 359.45,-282.79"/>
<polygon fill="black" stroke="black" points="368.44,-287.05 357.48,-286.84 365.02,-285.43 359.4,-282.77 359.4,-282.77 359.4,-282.77 365.02,-285.43 361.33,-278.7 368.44,-287.05"/>
</g>
<!-- novel_testbed.contracts.contract&#45;&gt;novel_testbed.models -->
<g id="edge19" class="edge">
<title>novel_testbed.contracts.contract&#45;&gt;novel_testbed.models</title>
<path fill="none" stroke="black" d="M368.85,-108.43C351.84,-116.42 335.3,-127.84 325.4,-144 300.32,-184.93 302,-210.09 325.4,-252 332.42,-264.57 343.78,-274.53 355.97,-282.25"/>
<polygon fill="black" stroke="black" points="364.35,-287.12 353.44,-285.99 361.08,-285.22 355.7,-282.1 355.7,-282.1 355.7,-282.1 361.08,-285.22 357.96,-278.21 364.35,-287.12"/>
</g>
<!-- novel_testbed.contracts.rules&#45;&gt;novel_testbed.models -->
<g id="edge20" class="edge">
<title>novel_testbed.contracts.rules&#45;&gt;novel_testbed.models</title>
<path fill="none" stroke="black" d="M204.33,-252.48C243.47,-262.41 292.59,-274.87 333.16,-285.16"/>
<polygon fill="black" stroke="black" points="342.64,-287.56 331.84,-289.46 338.97,-286.63 332.95,-285.1 332.95,-285.1 332.95,-285.1 338.97,-286.63 334.05,-280.74 342.64,-287.56"/>
</g>
<!-- novel_testbed.inference -->
<g id="node7" class="node">
<title>novel_testbed.inference</title>
<polygon fill="none" stroke="black" points="1107.9,-36 962.9,-36 962.9,0 1107.9,0 1107.9,-36"/>
<text xml:space="preserve" text-anchor="start" x="970.9" y="-12.95" font-family="Times,serif" font-size="14.00">novel_testbed.inference</text>
</g>
<!-- novel_testbed.inference.auto_contract&#45;&gt;novel_testbed.inference.base -->
<g id="edge21" class="edge">
<title>novel_testbed.inference.auto_contract&#45;&gt;novel_testbed.inference.base</title>
<path fill="none" stroke="black" d="M708.88,-108.3C698.81,-116.8 686.49,-127.19 675.47,-136.49"/>
<polygon fill="black" stroke="black" points="667.9,-142.87 672.64,-132.98 670.79,-140.43 675.54,-136.42 675.54,-136.42 675.54,-136.42 670.79,-140.43 678.45,-139.86 667.9,-142.87"/>
</g>
<!-- novel_testbed.inference.auto_contract&#45;&gt;novel_testbed.models -->
<g id="edge22" class="edge">
<title>novel_testbed.inference.auto_contract&#45;&gt;novel_testbed.models</title>
<path fill="none" stroke="black" d="M738.22,-108.34C746.63,-127.56 756.01,-158.64 741.4,-180 685.41,-261.86 568.27,-290.18 489.71,-299.93"/>
<polygon fill="black" stroke="black" points="480.1,-301.05 489.51,-295.42 483.86,-300.61 490.03,-299.89 490.03,-299.89 490.03,-299.89 483.86,-300.61 490.55,-304.36 480.1,-301.05"/>
</g>
<!-- novel_testbed.inference.auto_contract&#45;&gt;novel_testbed.parser.commonmark -->
<g id="edge23" class="edge">
<title>novel_testbed.inference.auto_contract&#45;&gt;novel_testbed.parser.commonmark</title>
<path fill="none" stroke="black" d="M656.72,-108.48C615.67,-118.36 564.2,-130.74 521.55,-141"/>
<polygon fill="black" stroke="black" points="512.09,-143.27 520.76,-136.56 515.77,-142.39 521.82,-140.93 521.82,-140.93 521.82,-140.93 515.77,-142.39 522.87,-145.31 512.09,-143.27"/>
</g>
<!-- novel_testbed.inference.base&#45;&gt;novel_testbed.models -->
<g id="edge24" class="edge">
<title>novel_testbed.inference.base&#45;&gt;novel_testbed.models</title>
<path fill="none" stroke="black" d="M622.62,-180.28C596.61,-198.89 553.41,-228.92 514.4,-252 496.23,-262.75 475.64,-273.6 457.67,-282.65"/>
<polygon fill="black" stroke="black" points="448.8,-287.08 455.74,-278.59 452.19,-285.39 457.75,-282.61 457.75,-282.61 457.75,-282.61 452.19,-285.39 459.76,-286.64 448.8,-287.08"/>
</g>
<!-- novel_testbed.inference.prompts -->
<g id="node12" class="node">
<title>novel_testbed.inference.prompts</title>
<polygon fill="none" stroke="black" points="1139.27,-252 945.52,-252 945.52,-216 1139.27,-216 1139.27,-252"/>
<text xml:space="preserve" text-anchor="start" x="953.52" y="-228.95" font-family="Times,serif" font-size="14.00">novel_testbed.inference.prompts</text>
</g>
<!-- novel_testbed.inference.llm_client&#45;&gt;novel_testbed.inference.prompts -->
<g id="edge25" class="edge">
<title>novel_testbed.inference.llm_client&#45;&gt;novel_testbed.inference.prompts</title>
<path fill="none" stroke="black" d="M1132.43,-180.48C1116.99,-189.49 1097.98,-200.58 1081.42,-210.24"/>
<polygon fill="black" stroke="black" points="1073.04,-215.13 1079.41,-206.2 1076.31,-213.22 1081.68,-210.09 1081.68,-210.09 1081.68,-210.09 1076.31,-213.22 1083.95,-213.97 1073.04,-215.13"/>
</g>
<!-- novel_testbed.inference.llm_inferencer&#45;&gt;novel_testbed.inference.base -->
<g id="edge26" class="edge">
<title>novel_testbed.inference.llm_inferencer&#45;&gt;novel_testbed.inference.base</title>
<path fill="none" stroke="black" d="M891.73,-108.48C845.21,-118.44 786.79,-130.95 738.62,-141.26"/>
<polygon fill="black" stroke="black" points="729.07,-143.3 737.91,-136.81 732.77,-142.51 738.85,-141.21 738.85,-141.21 738.85,-141.21 732.77,-142.51 739.79,-145.61 729.07,-143.3"/>
</g>
<!-- novel_testbed.inference.llm_inferencer&#45;&gt;novel_testbed.inference.llm_client -->
<g id="edge27" class="edge">
<title>novel_testbed.inference.llm_inferencer&#45;&gt;novel_testbed.inference.llm_client</title>
<path fill="none" stroke="black" d="M1020.6,-108.48C1046.18,-117.96 1077.99,-129.74 1105,-139.74"/>
<polygon fill="black" stroke="black" points="1114.33,-143.2 1103.39,-143.94 1110.78,-141.88 1104.95,-139.72 1104.95,-139.72 1104.95,-139.72 1110.78,-141.88 1106.51,-135.5 1114.33,-143.2"/>
</g>
<!-- novel_testbed.inference.llm_inferencer&#45;&gt;novel_testbed.inference.prompts -->
<g id="edge28" class="edge">
<title>novel_testbed.inference.llm_inferencer&#45;&gt;novel_testbed.inference.prompts</title>
<path fill="none" stroke="black" d="M900.59,-108.49C882.85,-116.35 865.95,-127.69 855.4,-144 846.71,-157.43 845.75,-167.24 855.4,-180 866.03,-194.06 899.11,-205.47 934.55,-214.05"/>
<polygon fill="black" stroke="black" points="943.91,-216.23 933.15,-218.34 940.23,-215.37 934.17,-213.96 934.17,-213.96 934.17,-213.96 940.23,-215.37 935.19,-209.58 943.91,-216.23"/>
</g>
<!-- novel_testbed.inference.types -->
<g id="node13" class="node">
<title>novel_testbed.inference.types</title>
<polygon fill="none" stroke="black" points="1042.02,-180 864.77,-180 864.77,-144 1042.02,-144 1042.02,-180"/>
<text xml:space="preserve" text-anchor="start" x="872.77" y="-156.95" font-family="Times,serif" font-size="14.00">novel_testbed.inference.types</text>
</g>
<!-- novel_testbed.inference.llm_inferencer&#45;&gt;novel_testbed.inference.types -->
<g id="edge29" class="edge">
<title>novel_testbed.inference.llm_inferencer&#45;&gt;novel_testbed.inference.types</title>
<path fill="none" stroke="black" d="M968.46,-108.3C966.3,-115.85 963.72,-124.88 961.31,-133.32"/>
<polygon fill="black" stroke="black" points="958.62,-142.72 957.04,-131.87 959.66,-139.09 961.37,-133.11 961.37,-133.11 961.37,-133.11 959.66,-139.09 965.7,-134.35 958.62,-142.72"/>
</g>
<!-- novel_testbed.inference.llm_inferencer&#45;&gt;novel_testbed.models -->
<g id="edge30" class="edge">
<title>novel_testbed.inference.llm_inferencer&#45;&gt;novel_testbed.models</title>
<path fill="none" stroke="black" d="M923.07,-108.4C898.66,-117.66 869.31,-130.01 844.4,-144 773.71,-183.7 771.8,-219.8 697.4,-252 630.89,-280.78 549.08,-293.95 490.02,-299.96"/>
<polygon fill="black" stroke="black" points="480.11,-300.92 489.63,-295.48 483.87,-300.56 490.06,-299.96 490.06,-299.96 490.06,-299.96 483.87,-300.56 490.49,-304.44 480.11,-300.92"/>
</g>
<!-- novel_testbed.parser -->
<g id="node16" class="node">
<title>novel_testbed.parser</title>
<polygon fill="none" stroke="black" points="1253.27,-36 1125.52,-36 1125.52,0 1253.27,0 1253.27,-36"/>
<text xml:space="preserve" text-anchor="start" x="1133.52" y="-12.95" font-family="Times,serif" font-size="14.00">novel_testbed.parser</text>
</g>
<!-- novel_testbed.parser.base&#45;&gt;novel_testbed.models -->
<g id="edge31" class="edge">
<title>novel_testbed.parser.base&#45;&gt;novel_testbed.models</title>
<path fill="none" stroke="black" d="M411.4,-252.3C411.4,-259.68 411.4,-268.48 411.4,-276.75"/>
<polygon fill="black" stroke="black" points="411.4,-286.68 406.9,-276.68 411.4,-282.9 411.4,-276.68 411.4,-276.68 411.4,-276.68 411.4,-282.9 415.9,-276.68 411.4,-286.68"/>
</g>
<!-- novel_testbed.parser.commonmark&#45;&gt;novel_testbed.models -->
<g id="edge32" class="edge">
<title>novel_testbed.parser.commonmark&#45;&gt;novel_testbed.models</title>
<path fill="none" stroke="black" d="M466.51,-180.36C478.39,-189.37 490.95,-201.54 497.4,-216 503.92,-230.61 505.2,-238.03 497.4,-252 490.38,-264.57 479.02,-274.53 466.83,-282.25"/>
<polygon fill="black" stroke="black" points="458.45,-287.12 464.84,-278.21 461.72,-285.22 467.1,-282.1 467.1,-282.1 467.1,-282.1 461.72,-285.22 469.36,-285.99 458.45,-287.12"/>
</g>
<!-- novel_testbed.parser.commonmark&#45;&gt;novel_testbed.parser.base -->
<g id="edge33" class="edge">
<title>novel_testbed.parser.commonmark&#45;&gt;novel_testbed.parser.base</title>
<path fill="none" stroke="black" d="M431.73,-180.3C428.78,-187.93 425.25,-197.08 421.97,-205.6"/>
<polygon fill="black" stroke="black" points="418.44,-214.76 417.84,-203.81 419.8,-211.23 422.03,-205.43 422.03,-205.43 422.03,-205.43 419.8,-211.23 426.23,-207.05 418.44,-214.76"/>
</g>
</g>
</svg>
