<?xml version="1.0" encoding="UTF-8" standalone="no"?>
<!DOCTYPE svg PUBLIC "-//W3C//DTD SVG 1.1//EN"
 "http://www.w3.org/Graphics/SVG/1.1/DTD/svg11.dtd">
<!-- Generated by graphviz version 14.1.1 (20251213.1925)
 -->
<!-- Title: packages_novel_testbed Pages: 1 -->
<svg width="1806pt" height="404pt"
 viewBox="0.00 0.00 1806.00 404.00" xmlns="http://www.w3.org/2000/svg" xmlns:xlink="http://www.w3.org/1999/xlink">
<g id="graph0" class="graph" transform="scale(1 1) rotate(0) translate(4 400)">
<title>packages_novel_testbed</title>
<polygon fill="white" stroke="none" points="-4,4 -4,-400 1802,-400 1802,4 -4,4"/>
<!-- novel_testbed -->
<g id="node1" class="node">
<title>novel_testbed</title>
<polygon fill="none" stroke="black" points="567.5,-36 476.5,-36 476.5,0 567.5,0 567.5,-36"/>
<text xml:space="preserve" text-anchor="start" x="484.5" y="-12.95" font-family="Times,serif" font-size="14.00">novel_testbed</text>
</g>
<!-- novel_testbed.contracts.assessor -->
<g id="node4" class="node">
<title>novel_testbed.contracts.assessor</title>
<polygon fill="none" stroke="black" points="493.75,-108 302.25,-108 302.25,-72 493.75,-72 493.75,-108"/>
<text xml:space="preserve" text-anchor="start" x="310.25" y="-84.95" font-family="Times,serif" font-size="14.00">novel_testbed.contracts.assessor</text>
</g>
<!-- novel_testbed&#45;&gt;novel_testbed.contracts.assessor -->
<g id="edge1" class="edge">
<title>novel_testbed&#45;&gt;novel_testbed.contracts.assessor</title>
<path fill="none" stroke="black" d="M491.03,-36.48C475.08,-45.49 455.44,-56.58 438.32,-66.24"/>
<polygon fill="black" stroke="black" points="429.64,-71.14 436.13,-62.31 432.93,-69.28 438.35,-66.22 438.35,-66.22 438.35,-66.22 432.93,-69.28 440.56,-70.14 429.64,-71.14"/>
</g>
<!-- novel_testbed.contracts.contract -->
<g id="node5" class="node">
<title>novel_testbed.contracts.contract</title>
<polygon fill="none" stroke="black" points="284.38,-108 93.62,-108 93.62,-72 284.38,-72 284.38,-108"/>
<text xml:space="preserve" text-anchor="start" x="101.62" y="-84.95" font-family="Times,serif" font-size="14.00">novel_testbed.contracts.contract</text>
</g>
<!-- novel_testbed&#45;&gt;novel_testbed.contracts.contract -->
<g id="edge2" class="edge">
<title>novel_testbed&#45;&gt;novel_testbed.contracts.contract</title>
<path fill="none" stroke="black" d="M476.05,-28.66C426.38,-39.1 345.86,-56.03 282.72,-69.3"/>
<polygon fill="black" stroke="black" points="273.14,-71.31 282,-64.85 276.84,-70.54 282.92,-69.26 282.92,-69.26 282.92,-69.26 276.84,-70.54 283.85,-73.66 273.14,-71.31"/>
</g>
<!-- novel_testbed.inference.auto_contract -->
<g id="node8" class="node">
<title>novel_testbed.inference.auto_contract</title>
<polygon fill="none" stroke="black" points="848.12,-108 625.88,-108 625.88,-72 848.12,-72 848.12,-108"/>
<text xml:space="preserve" text-anchor="start" x="633.88" y="-84.95" font-family="Times,serif" font-size="14.00">novel_testbed.inference.auto_contract</text>
</g>
<!-- novel_testbed&#45;&gt;novel_testbed.inference.auto_contract -->
<g id="edge3" class="edge">
<title>novel_testbed&#45;&gt;novel_testbed.inference.auto_contract</title>
<path fill="none" stroke="black" d="M567.86,-33.93C598.59,-43.94 639.48,-57.25 673.36,-68.28"/>
<polygon fill="black" stroke="black" points="682.47,-71.25 671.57,-72.43 678.87,-70.08 672.96,-68.15 672.96,-68.15 672.96,-68.15 678.87,-70.08 674.35,-63.87 682.47,-71.25"/>
</g>
<!-- novel_testbed.inference.base -->
<g id="node9" class="node">
<title>novel_testbed.inference.base</title>
<polygon fill="none" stroke="black" points="716.38,-324 543.62,-324 543.62,-288 716.38,-288 716.38,-324"/>
<text xml:space="preserve" text-anchor="start" x="551.62" y="-300.95" font-family="Times,serif" font-size="14.00">novel_testbed.inference.base</text>
</g>
<!-- novel_testbed&#45;&gt;novel_testbed.inference.base -->
<g id="edge4" class="edge">
<title>novel_testbed&#45;&gt;novel_testbed.inference.base</title>
<path fill="none" stroke="black" d="M545.64,-36.13C573.16,-57.69 617.13,-97.59 635,-144 651.99,-188.12 644.36,-244.19 637.21,-277.18"/>
<polygon fill="black" stroke="black" points="635.03,-286.64 632.9,-275.88 635.88,-282.95 637.28,-276.89 637.28,-276.89 637.28,-276.89 635.88,-282.95 641.66,-277.91 635.03,-286.64"/>
</g>
<!-- novel_testbed.inference.llm_client -->
<g id="node10" class="node">
<title>novel_testbed.inference.llm_client</title>
<polygon fill="none" stroke="black" points="1292.12,-324 1087.88,-324 1087.88,-288 1292.12,-288 1292.12,-324"/>
<text xml:space="preserve" text-anchor="start" x="1095.88" y="-300.95" font-family="Times,serif" font-size="14.00">novel_testbed.inference.llm_client</text>
</g>
<!-- novel_testbed&#45;&gt;novel_testbed.inference.llm_client -->
<g id="edge5" class="edge">
<title>novel_testbed&#45;&gt;novel_testbed.inference.llm_client</title>
<path fill="none" stroke="black" d="M567.89,-22.07C637.35,-27.54 772.86,-41.38 884,-72 924.34,-83.12 930.8,-96.36 971,-108 1061.12,-134.09 1116.17,-74.33 1179,-144 1211.59,-180.14 1205.02,-241.36 1197.43,-276.99"/>
<polygon fill="black" stroke="black" points="1195.25,-286.4 1193.12,-275.65 1196.1,-282.72 1197.5,-276.66 1197.5,-276.66 1197.5,-276.66 1196.1,-282.72 1201.89,-277.67 1195.25,-286.4"/>
</g>
<!-- novel_testbed.inference.llm_inferencer -->
<g id="node11" class="node">
<title>novel_testbed.inference.llm_inferencer</title>
<polygon fill="none" stroke="black" points="1019.5,-252 790.5,-252 790.5,-216 1019.5,-216 1019.5,-252"/>
<text xml:space="preserve" text-anchor="start" x="798.5" y="-228.95" font-family="Times,serif" font-size="14.00">novel_testbed.inference.llm_inferencer</text>
</g>
<!-- novel_testbed&#45;&gt;novel_testbed.inference.llm_inferencer -->
<g id="edge6" class="edge">
<title>novel_testbed&#45;&gt;novel_testbed.inference.llm_inferencer</title>
<path fill="none" stroke="black" d="M567.96,-20.37C649.47,-23.72 814.74,-35.01 857,-72 895.32,-105.54 903.7,-168.22 905.15,-204.69"/>
<polygon fill="black" stroke="black" points="905.38,-214.33 900.64,-204.43 905.29,-210.54 905.14,-204.33 905.14,-204.33 905.14,-204.33 905.29,-210.54 909.64,-204.22 905.38,-214.33"/>
</g>
<!-- novel_testbed.models -->
<g id="node15" class="node">
<title>novel_testbed.models</title>
<polygon fill="none" stroke="black" points="507.25,-396 372.75,-396 372.75,-360 507.25,-360 507.25,-396"/>
<text xml:space="preserve" text-anchor="start" x="380.75" y="-372.95" font-family="Times,serif" font-size="14.00">novel_testbed.models</text>
</g>
<!-- novel_testbed&#45;&gt;novel_testbed.models -->
<g id="edge7" class="edge">
<title>novel_testbed&#45;&gt;novel_testbed.models</title>
<path fill="none" stroke="black" d="M476.23,-19.87C375.27,-22.48 136.97,-32.76 68,-72 24.73,-96.62 0,-111.22 0,-161 0,-161 0,-161 0,-235 0,-295.5 48.12,-298.54 103,-324 185.62,-362.32 290.58,-373.73 361.23,-376.73"/>
<polygon fill="black" stroke="black" points="371.05,-377.09 360.88,-381.22 367.27,-376.95 361.05,-376.72 361.05,-376.72 361.05,-376.72 367.27,-376.95 361.22,-372.22 371.05,-377.09"/>
</g>
<!-- novel_testbed.parser.base -->
<g id="node17" class="node">
<title>novel_testbed.parser.base</title>
<polygon fill="none" stroke="black" points="220.38,-252 65.62,-252 65.62,-216 220.38,-216 220.38,-252"/>
<text xml:space="preserve" text-anchor="start" x="73.62" y="-228.95" font-family="Times,serif" font-size="14.00">novel_testbed.parser.base</text>
</g>
<!-- novel_testbed&#45;&gt;novel_testbed.parser.base -->
<g id="edge8" class="edge">
<title>novel_testbed&#45;&gt;novel_testbed.parser.base</title>
<path fill="none" stroke="black" d="M476.08,-21.18C369.16,-26.73 110.66,-43.04 85,-72 50.22,-111.26 90.99,-172.93 119.65,-207.44"/>
<polygon fill="black" stroke="black" points="125.83,-214.67 115.91,-209.99 123.38,-211.8 119.33,-207.07 119.33,-207.07 119.33,-207.07 123.38,-211.8 122.76,-204.15 125.83,-214.67"/>
</g>
<!-- novel_testbed.parser.commonmark -->
<g id="node18" class="node">
<title>novel_testbed.parser.commonmark</title>
<polygon fill="none" stroke="black" points="626,-180 418,-180 418,-144 626,-144 626,-180"/>
<text xml:space="preserve" text-anchor="start" x="426" y="-156.95" font-family="Times,serif" font-size="14.00">novel_testbed.parser.commonmark</text>
</g>
<!-- novel_testbed&#45;&gt;novel_testbed.parser.commonmark -->
<g id="edge9" class="edge">
<title>novel_testbed&#45;&gt;novel_testbed.parser.commonmark</title>
<path fill="none" stroke="black" d="M522,-36.41C522,-60.5 522,-104.25 522,-132.97"/>
<polygon fill="black" stroke="black" points="522,-142.67 517.5,-132.67 522,-138.89 522,-132.67 522,-132.67 522,-132.67 522,-138.89 526.5,-132.67 522,-142.67"/>
</g>
<!-- novel_testbed.cli -->
<g id="node2" class="node">
<title>novel_testbed.cli</title>
<polygon fill="none" stroke="black" points="1006.12,-36 897.88,-36 897.88,0 1006.12,0 1006.12,-36"/>
<text xml:space="preserve" text-anchor="start" x="905.88" y="-12.95" font-family="Times,serif" font-size="14.00">novel_testbed.cli</text>
</g>
<!-- novel_testbed.cli&#45;&gt;novel_testbed.contracts.assessor -->
<g id="edge10" class="edge">
<title>novel_testbed.cli&#45;&gt;novel_testbed.contracts.assessor</title>
<path fill="none" stroke="black" d="M897.62,-25.87C806.74,-37.35 622.42,-60.64 504.85,-75.5"/>
<polygon fill="black" stroke="black" points="495.25,-76.71 504.6,-70.99 499,-76.24 505.17,-75.46 505.17,-75.46 505.17,-75.46 499,-76.24 505.73,-79.92 495.25,-76.71"/>
</g>
<!-- novel_testbed.cli&#45;&gt;novel_testbed.contracts.contract -->
<g id="edge11" class="edge">
<title>novel_testbed.cli&#45;&gt;novel_testbed.contracts.contract</title>
<path fill="none" stroke="black" d="M897.6,-21.87C786.42,-28.05 524.94,-44.26 295.62,-71.73"/>
<polygon fill="black" stroke="black" points="285.94,-72.9 295.33,-67.24 289.69,-72.45 295.87,-71.7 295.87,-71.7 295.87,-71.7 289.69,-72.45 296.41,-76.17 285.94,-72.9"/>
</g>
<!-- novel_testbed.cli&#45;&gt;novel_testbed.inference.auto_contract -->
<g id="edge12" class="edge">
<title>novel_testbed.cli&#45;&gt;novel_testbed.inference.auto_contract</title>
<path fill="none" stroke="black" d="M898.3,-36.48C868.69,-46.12 831.74,-58.16 800.68,-68.27"/>
<polygon fill="black" stroke="black" points="791.55,-71.24 799.66,-63.87 795.14,-70.07 801.05,-68.15 801.05,-68.15 801.05,-68.15 795.14,-70.07 802.45,-72.42 791.55,-71.24"/>
</g>
<!-- novel_testbed.cli&#45;&gt;novel_testbed.inference.llm_client -->
<g id="edge13" class="edge">
<title>novel_testbed.cli&#45;&gt;novel_testbed.inference.llm_client</title>
<path fill="none" stroke="black" d="M1006.5,-34.34C1009.37,-34.94 1012.21,-35.51 1015,-36 1059.92,-43.97 1393.19,-38.36 1424,-72 1497.91,-152.71 1331.48,-242.61 1242.05,-283.11"/>
<polygon fill="black" stroke="black" points="1233.18,-287.08 1240.48,-278.89 1236.64,-285.53 1242.31,-283 1242.31,-283 1242.31,-283 1236.64,-285.53 1244.15,-287.1 1233.18,-287.08"/>
</g>
<!-- novel_testbed.cli&#45;&gt;novel_testbed.inference.llm_inferencer -->
<g id="edge14" class="edge">
<title>novel_testbed.cli&#45;&gt;novel_testbed.inference.llm_inferencer</title>
<path fill="none" stroke="black" d="M948.23,-36.15C940.14,-73.01 921.02,-160.08 911.14,-205.04"/>
<polygon fill="black" stroke="black" points="909.05,-214.58 906.8,-203.84 909.86,-210.88 911.19,-204.81 911.19,-204.81 911.19,-204.81 909.86,-210.88 915.59,-205.78 909.05,-214.58"/>
</g>
<!-- novel_testbed.logging_config -->
<g id="node14" class="node">
<title>novel_testbed.logging_config</title>
<polygon fill="none" stroke="black" points="1396.62,-108 1219.38,-108 1219.38,-72 1396.62,-72 1396.62,-108"/>
<text xml:space="preserve" text-anchor="start" x="1227.38" y="-84.95" font-family="Times,serif" font-size="14.00">novel_testbed.logging_config</text>
</g>
<!-- novel_testbed.cli&#45;&gt;novel_testbed.logging_config -->
<g id="edge15" class="edge">
<title>novel_testbed.cli&#45;&gt;novel_testbed.logging_config</title>
<path fill="none" stroke="black" d="M1006.57,-34.03C1009.41,-34.72 1012.24,-35.38 1015,-36 1033.88,-40.25 1130.88,-57.65 1208.17,-71.37"/>
<polygon fill="black" stroke="black" points="1217.74,-73.07 1207.11,-75.75 1214.02,-72.41 1207.89,-71.32 1207.89,-71.32 1207.89,-71.32 1214.02,-72.41 1208.68,-66.89 1217.74,-73.07"/>
</g>
<!-- novel_testbed.cli&#45;&gt;novel_testbed.parser.commonmark -->
<g id="edge16" class="edge">
<title>novel_testbed.cli&#45;&gt;novel_testbed.parser.commonmark</title>
<path fill="none" stroke="black" d="M897.62,-23.7C815.79,-31.42 665.4,-48.33 617,-72 586.76,-86.79 559.55,-114.5 542.08,-135.09"/>
<polygon fill="black" stroke="black" points="535.76,-142.76 538.65,-132.18 538.16,-139.84 542.12,-135.04 542.12,-135.04 542.12,-135.04 538.16,-139.84 545.59,-137.9 535.76,-142.76"/>
</g>
<!-- novel_testbed.segmentation.segmenter -->
<g id="node20" class="node">
<title>novel_testbed.segmentation.segmenter</title>
<polygon fill="none" stroke="black" points="1169.75,-180 942.25,-180 942.25,-144 1169.75,-144 1169.75,-180"/>
<text xml:space="preserve" text-anchor="start" x="950.25" y="-156.95" font-family="Times,serif" font-size="14.00">novel_testbed.segmentation.segmenter</text>
</g>
<!-- novel_testbed.cli&#45;&gt;novel_testbed.segmentation.segmenter -->
<g id="edge17" class="edge">
<title>novel_testbed.cli&#45;&gt;novel_testbed.segmentation.segmenter</title>
<path fill="none" stroke="black" d="M1006.51,-34.32C1009.37,-34.93 1012.21,-35.5 1015,-36 1057.94,-43.71 1376.6,-39.77 1406,-72 1416.78,-83.82 1416.43,-95.87 1406,-108 1377.05,-141.66 1269.31,-154.21 1180.92,-158.75"/>
<polygon fill="black" stroke="black" points="1171.19,-159.22 1180.96,-154.25 1174.96,-159.04 1181.17,-158.74 1181.17,-158.74 1181.17,-158.74 1174.96,-159.04 1181.39,-163.23 1171.19,-159.22"/>
</g>
<!-- novel_testbed.utils.source_fingerprint -->
<g id="node22" class="node">
<title>novel_testbed.utils.source_fingerprint</title>
<polygon fill="none" stroke="black" points="1201.75,-108 980.25,-108 980.25,-72 1201.75,-72 1201.75,-108"/>
<text xml:space="preserve" text-anchor="start" x="988.25" y="-84.95" font-family="Times,serif" font-size="14.00">novel_testbed.utils.source_fingerprint</text>
</g>
<!-- novel_testbed.cli&#45;&gt;novel_testbed.utils.source_fingerprint -->
<g id="edge18" class="edge">
<title>novel_testbed.cli&#45;&gt;novel_testbed.utils.source_fingerprint</title>
<path fill="none" stroke="black" d="M986.72,-36.48C1004.93,-45.66 1027.44,-56.99 1046.88,-66.78"/>
<polygon fill="black" stroke="black" points="1055.64,-71.19 1044.68,-70.71 1052.26,-69.49 1046.71,-66.69 1046.71,-66.69 1046.71,-66.69 1052.26,-69.49 1048.73,-62.67 1055.64,-71.19"/>
</g>
<!-- novel_testbed.contracts -->
<g id="node3" class="node">
<title>novel_testbed.contracts</title>
<polygon fill="none" stroke="black" points="1167.75,-36 1024.25,-36 1024.25,0 1167.75,0 1167.75,-36"/>
<text xml:space="preserve" text-anchor="start" x="1032.25" y="-12.95" font-family="Times,serif" font-size="14.00">novel_testbed.contracts</text>
</g>
<!-- novel_testbed.contracts.rules -->
<g id="node6" class="node">
<title>novel_testbed.contracts.rules</title>
<polygon fill="none" stroke="black" points="411.75,-252 238.25,-252 238.25,-216 411.75,-216 411.75,-252"/>
<text xml:space="preserve" text-anchor="start" x="246.25" y="-228.95" font-family="Times,serif" font-size="14.00">novel_testbed.contracts.rules</text>
</g>
<!-- novel_testbed.contracts.assessor&#45;&gt;novel_testbed.contracts.rules -->
<g id="edge19" class="edge">
<title>novel_testbed.contracts.assessor&#45;&gt;novel_testbed.contracts.rules</title>
<path fill="none" stroke="black" d="M389.05,-108.41C376.5,-132.82 353.57,-177.42 338.83,-206.11"/>
<polygon fill="black" stroke="black" points="334.35,-214.81 334.92,-203.85 336.08,-211.44 338.93,-205.91 338.93,-205.91 338.93,-205.91 336.08,-211.44 342.93,-207.97 334.35,-214.81"/>
</g>
<!-- novel_testbed.contracts.assessor&#45;&gt;novel_testbed.models -->
<g id="edge20" class="edge">
<title>novel_testbed.contracts.assessor&#45;&gt;novel_testbed.models</title>
<path fill="none" stroke="black" d="M399.11,-108.24C400.51,-126.29 403.44,-155.4 409,-180 412.72,-196.45 417.33,-199.54 421,-216 431.27,-261.99 436.23,-316.7 438.44,-349.04"/>
<polygon fill="black" stroke="black" points="439.05,-358.67 433.92,-348.98 438.81,-354.9 438.42,-348.69 438.42,-348.69 438.42,-348.69 438.81,-354.9 442.91,-348.4 439.05,-358.67"/>
</g>
<!-- novel_testbed.contracts.contract&#45;&gt;novel_testbed.models -->
<g id="edge21" class="edge">
<title>novel_testbed.contracts.contract&#45;&gt;novel_testbed.models</title>
<path fill="none" stroke="black" d="M155.76,-108.39C105.2,-137.17 18.67,-196.99 57,-252 92.2,-302.53 260.18,-342.68 361.62,-362.83"/>
<polygon fill="black" stroke="black" points="371.24,-364.72 360.56,-367.21 367.53,-363.99 361.43,-362.79 361.43,-362.79 361.43,-362.79 367.53,-363.99 362.3,-358.38 371.24,-364.72"/>
</g>
<!-- novel_testbed.contracts.rules&#45;&gt;novel_testbed.models -->
<g id="edge22" class="edge">
<title>novel_testbed.contracts.rules&#45;&gt;novel_testbed.models</title>
<path fill="none" stroke="black" d="M339.1,-252.41C359.13,-277.14 395.94,-322.59 419.13,-351.23"/>
<polygon fill="black" stroke="black" points="425.38,-358.94 415.59,-354 423,-356 419.08,-351.17 419.08,-351.17 419.08,-351.17 423,-356 422.58,-348.34 425.38,-358.94"/>
</g>
<!-- novel_testbed.inference -->
<g id="node7" class="node">
<title>novel_testbed.inference</title>
<polygon fill="none" stroke="black" points="1330.5,-36 1185.5,-36 1185.5,0 1330.5,0 1330.5,-36"/>
<text xml:space="preserve" text-anchor="start" x="1193.5" y="-12.95" font-family="Times,serif" font-size="14.00">novel_testbed.inference</text>
</g>
<!-- novel_testbed.inference.auto_contract&#45;&gt;novel_testbed.inference.base -->
<g id="edge23" class="edge">
<title>novel_testbed.inference.auto_contract&#45;&gt;novel_testbed.inference.base</title>
<path fill="none" stroke="black" d="M731.1,-108.02C720.39,-138.04 696.23,-201.94 668,-252 662.83,-261.17 656.4,-270.67 650.31,-279.06"/>
<polygon fill="black" stroke="black" points="644.39,-286.99 646.76,-276.28 646.65,-283.96 650.37,-278.98 650.37,-278.98 650.37,-278.98 646.65,-283.96 653.98,-281.67 644.39,-286.99"/>
</g>
<!-- novel_testbed.inference.auto_contract&#45;&gt;novel_testbed.models -->
<g id="edge24" class="edge">
<title>novel_testbed.inference.auto_contract&#45;&gt;novel_testbed.models</title>
<path fill="none" stroke="black" d="M742.45,-108.24C754.73,-150.79 779.44,-261.83 725,-324 698.42,-354.36 593.3,-367.48 518.48,-373.05"/>
<polygon fill="black" stroke="black" points="508.89,-373.73 518.54,-368.53 512.66,-373.46 518.86,-373.02 518.86,-373.02 518.86,-373.02 512.66,-373.46 519.18,-377.51 508.89,-373.73"/>
</g>
<!-- novel_testbed.inference.auto_contract&#45;&gt;novel_testbed.parser.commonmark -->
<g id="edge25" class="edge">
<title>novel_testbed.inference.auto_contract&#45;&gt;novel_testbed.parser.commonmark</title>
<path fill="none" stroke="black" d="M683.3,-108.48C653.69,-118.12 616.74,-130.16 585.68,-140.27"/>
<polygon fill="black" stroke="black" points="576.55,-143.24 584.66,-135.87 580.14,-142.07 586.05,-140.15 586.05,-140.15 586.05,-140.15 580.14,-142.07 587.45,-144.42 576.55,-143.24"/>
</g>
<!-- novel_testbed.inference.auto_contract&#45;&gt;novel_testbed.segmentation.segmenter -->
<g id="edge26" class="edge">
<title>novel_testbed.inference.auto_contract&#45;&gt;novel_testbed.segmentation.segmenter</title>
<path fill="none" stroke="black" d="M816.67,-108.48C861.96,-118.42 918.81,-130.9 965.74,-141.19"/>
<polygon fill="black" stroke="black" points="975.32,-143.3 964.59,-145.55 971.63,-142.49 965.55,-141.15 965.55,-141.15 965.55,-141.15 971.63,-142.49 966.52,-136.76 975.32,-143.3"/>
</g>
<!-- novel_testbed.inference.base&#45;&gt;novel_testbed.models -->
<g id="edge27" class="edge">
<title>novel_testbed.inference.base&#45;&gt;novel_testbed.models</title>
<path fill="none" stroke="black" d="M582.55,-324.48C556.72,-334 524.57,-345.84 497.35,-355.87"/>
<polygon fill="black" stroke="black" points="488.32,-359.2 496.15,-351.52 491.87,-357.89 497.71,-355.74 497.71,-355.74 497.71,-355.74 491.87,-357.89 499.26,-359.96 488.32,-359.2"/>
</g>
<!-- novel_testbed.inference.prompts -->
<g id="node12" class="node">
<title>novel_testbed.inference.prompts</title>
<polygon fill="none" stroke="black" points="1123.88,-396 930.12,-396 930.12,-360 1123.88,-360 1123.88,-396"/>
<text xml:space="preserve" text-anchor="start" x="938.12" y="-372.95" font-family="Times,serif" font-size="14.00">novel_testbed.inference.prompts</text>
</g>
<!-- novel_testbed.inference.llm_client&#45;&gt;novel_testbed.inference.prompts -->
<g id="edge28" class="edge">
<title>novel_testbed.inference.llm_client&#45;&gt;novel_testbed.inference.prompts</title>
<path fill="none" stroke="black" d="M1149.29,-324.48C1127.62,-333.79 1100.77,-345.32 1077.75,-355.21"/>
<polygon fill="black" stroke="black" points="1068.59,-359.14 1076.01,-351.06 1072.07,-357.65 1077.78,-355.19 1077.78,-355.19 1077.78,-355.19 1072.07,-357.65 1079.56,-359.33 1068.59,-359.14"/>
</g>
<!-- novel_testbed.inference.llm_inferencer&#45;&gt;novel_testbed.inference.base -->
<g id="edge29" class="edge">
<title>novel_testbed.inference.llm_inferencer&#45;&gt;novel_testbed.inference.base</title>
<path fill="none" stroke="black" d="M836.32,-252.48C797.7,-262.31 749.32,-274.63 709.12,-284.86"/>
<polygon fill="black" stroke="black" points="699.47,-287.32 708.05,-280.49 703.13,-286.38 709.16,-284.85 709.16,-284.85 709.16,-284.85 703.13,-286.38 710.27,-289.21 699.47,-287.32"/>
</g>
<!-- novel_testbed.inference.llm_inferencer&#45;&gt;novel_testbed.inference.llm_client -->
<g id="edge30" class="edge">
<title>novel_testbed.inference.llm_inferencer&#45;&gt;novel_testbed.inference.llm_client</title>
<path fill="none" stroke="black" d="M976.18,-252.48C1016.37,-262.36 1066.77,-274.73 1108.53,-284.99"/>
<polygon fill="black" stroke="black" points="1118.05,-287.33 1107.26,-289.31 1114.38,-286.43 1108.34,-284.94 1108.34,-284.94 1108.34,-284.94 1114.38,-286.43 1109.41,-280.57 1118.05,-287.33"/>
</g>
<!-- novel_testbed.inference.llm_inferencer&#45;&gt;novel_testbed.inference.prompts -->
<g id="edge31" class="edge">
<title>novel_testbed.inference.llm_inferencer&#45;&gt;novel_testbed.inference.prompts</title>
<path fill="none" stroke="black" d="M893.15,-252.23C881.62,-271.34 867.88,-302.33 883,-324 892.38,-337.44 905.56,-347.48 920.19,-354.99"/>
<polygon fill="black" stroke="black" points="928.87,-359.04 917.91,-358.89 925.45,-357.44 919.81,-354.81 919.81,-354.81 919.81,-354.81 925.45,-357.44 921.72,-350.73 928.87,-359.04"/>
</g>
<!-- novel_testbed.inference.types -->
<g id="node13" class="node">
<title>novel_testbed.inference.types</title>
<polygon fill="none" stroke="black" points="1069.62,-324 892.38,-324 892.38,-288 1069.62,-288 1069.62,-324"/>
<text xml:space="preserve" text-anchor="start" x="900.38" y="-300.95" font-family="Times,serif" font-size="14.00">novel_testbed.inference.types</text>
</g>
<!-- novel_testbed.inference.llm_inferencer&#45;&gt;novel_testbed.inference.types -->
<g id="edge32" class="edge">
<title>novel_testbed.inference.llm_inferencer&#45;&gt;novel_testbed.inference.types</title>
<path fill="none" stroke="black" d="M923.79,-252.3C932.92,-260.72 944.07,-270.98 954.08,-280.21"/>
<polygon fill="black" stroke="black" points="961.27,-286.83 950.87,-283.36 958.49,-284.27 953.91,-280.05 953.91,-280.05 953.91,-280.05 958.49,-284.27 956.96,-276.74 961.27,-286.83"/>
</g>
<!-- novel_testbed.inference.llm_inferencer&#45;&gt;novel_testbed.models -->
<g id="edge33" class="edge">
<title>novel_testbed.inference.llm_inferencer&#45;&gt;novel_testbed.models</title>
<path fill="none" stroke="black" d="M882.48,-252.42C854.78,-272.92 805.56,-306.38 758,-324 679.61,-353.04 584.44,-366.24 518.76,-372.19"/>
<polygon fill="black" stroke="black" points="508.88,-373.05 518.46,-367.7 512.65,-372.72 518.84,-372.18 518.84,-372.18 518.84,-372.18 512.65,-372.72 519.23,-376.67 508.88,-373.05"/>
</g>
<!-- novel_testbed.parser -->
<g id="node16" class="node">
<title>novel_testbed.parser</title>
<polygon fill="none" stroke="black" points="1475.88,-36 1348.12,-36 1348.12,0 1475.88,0 1475.88,-36"/>
<text xml:space="preserve" text-anchor="start" x="1356.12" y="-12.95" font-family="Times,serif" font-size="14.00">novel_testbed.parser</text>
</g>
<!-- novel_testbed.parser.base&#45;&gt;novel_testbed.models -->
<g id="edge34" class="edge">
<title>novel_testbed.parser.base&#45;&gt;novel_testbed.models</title>
<path fill="none" stroke="black" d="M179.42,-252.41C233.45,-278.25 334.81,-326.71 393.93,-354.97"/>
<polygon fill="black" stroke="black" points="402.65,-359.14 391.69,-358.89 399.24,-357.51 393.63,-354.83 393.63,-354.83 393.63,-354.83 399.24,-357.51 395.57,-350.77 402.65,-359.14"/>
</g>
<!-- novel_testbed.parser.commonmark&#45;&gt;novel_testbed.models -->
<g id="edge35" class="edge">
<title>novel_testbed.parser.commonmark&#45;&gt;novel_testbed.models</title>
<path fill="none" stroke="black" d="M515.43,-180.15C501.27,-217.09 467.8,-304.45 450.6,-349.33"/>
<polygon fill="black" stroke="black" points="447.04,-358.63 446.42,-347.68 448.39,-355.1 450.62,-349.29 450.62,-349.29 450.62,-349.29 448.39,-355.1 454.82,-350.9 447.04,-358.63"/>
</g>
<!-- novel_testbed.parser.commonmark&#45;&gt;novel_testbed.parser.base -->
<g id="edge36" class="edge">
<title>novel_testbed.parser.commonmark&#45;&gt;novel_testbed.parser.base</title>
<path fill="none" stroke="black" d="M423.26,-180.45C369.18,-190.1 300.7,-202.49 231.47,-215.55"/>
<polygon fill="black" stroke="black" points="222,-217.34 230.99,-211.06 225.72,-216.63 231.83,-215.48 231.83,-215.48 231.83,-215.48 225.72,-216.63 232.66,-219.9 222,-217.34"/>
</g>
<!-- novel_testbed.segmentation -->
<g id="node19" class="node">
<title>novel_testbed.segmentation</title>
<polygon fill="none" stroke="black" points="1661.75,-36 1494.25,-36 1494.25,0 1661.75,0 1661.75,-36"/>
<text xml:space="preserve" text-anchor="start" x="1502.25" y="-12.95" font-family="Times,serif" font-size="14.00">novel_testbed.segmentation</text>
</g>
<!-- novel_testbed.segmentation.segmenter&#45;&gt;novel_testbed.inference.llm_client -->
<g id="edge37" class="edge">
<title>novel_testbed.segmentation.segmenter&#45;&gt;novel_testbed.inference.llm_client</title>
<path fill="none" stroke="black" d="M1072.43,-180.41C1095.97,-205.35 1139.4,-251.38 1166.38,-279.97"/>
<polygon fill="black" stroke="black" points="1173.02,-287 1162.88,-282.82 1170.42,-284.25 1166.15,-279.73 1166.15,-279.73 1166.15,-279.73 1170.42,-284.25 1169.43,-276.64 1173.02,-287"/>
</g>
<!-- novel_testbed.segmentation.segmenter&#45;&gt;novel_testbed.inference.llm_inferencer -->
<g id="edge38" class="edge">
<title>novel_testbed.segmentation.segmenter&#45;&gt;novel_testbed.inference.llm_inferencer</title>
<path fill="none" stroke="black" d="M1018.29,-180.48C998.39,-189.71 973.78,-201.11 952.59,-210.94"/>
<polygon fill="black" stroke="black" points="943.6,-215.11 950.78,-206.82 947.03,-213.52 952.67,-210.9 952.67,-210.9 952.67,-210.9 947.03,-213.52 954.57,-214.98 943.6,-215.11"/>
</g>
<!-- novel_testbed.utils -->
<g id="node21" class="node">
<title>novel_testbed.utils</title>
<polygon fill="none" stroke="black" points="1798,-36 1680,-36 1680,0 1798,0 1798,-36"/>
<text xml:space="preserve" text-anchor="start" x="1688" y="-12.95" font-family="Times,serif" font-size="14.00">novel_testbed.utils</text>
</g>
</g>
</svg>
